<svg preserveAspectRatio="none" width="100%" height="100%" overflow="visible" style="display: block;" viewBox="0 0 12.8333 7" fill="none" xmlns="http://www.w3.org/2000/svg">
<path id="Vector" d="M12.8333 1.16667C12.8333 1.80833 12.3083 2.33333 11.6667 2.33333C11.5617 2.33333 11.4625 2.32167 11.3692 2.2925L9.2925 4.36333C9.32167 4.45667 9.33333 4.56167 9.33333 4.66667C9.33333 5.30833 8.80833 5.83333 8.16667 5.83333C7.525 5.83333 7 5.30833 7 4.66667C7 4.56167 7.01167 4.45667 7.04083 4.36333L5.55333 2.87583C5.46 2.905 5.355 2.91667 5.25 2.91667C5.145 2.91667 5.04 2.905 4.94667 2.87583L2.2925 5.53583C2.32167 5.62917 2.33333 5.72833 2.33333 5.83333C2.33333 6.475 1.80833 7 1.16667 7C0.525 7 0 6.475 0 5.83333C0 5.19167 0.525 4.66667 1.16667 4.66667C1.27167 4.66667 1.37083 4.67833 1.46417 4.7075L4.12417 2.05333C4.095 1.96 4.08333 1.855 4.08333 1.75C4.08333 1.10833 4.60833 0.583333 5.25 0.583333C5.89167 0.583333 6.41667 1.10833 6.41667 1.75C6.41667 1.855 6.405 1.96 6.37583 2.05333L7.86333 3.54083C7.95667 3.51167 8.06167 3.5 8.16667 3.5C8.27167 3.5 8.37667 3.51167 8.47 3.54083L10.5408 1.46417C10.5117 1.37083 10.5 1.27167 10.5 1.16667C10.5 0.525 11.025 0 11.6667 0C12.3083 0 12.8333 0.525 12.8333 1.16667Z" fill="var(--fill-0, #F5FFFE)"/>
</svg>
