<svg preserveAspectRatio="none" width="100%" height="100%" overflow="visible" style="display: block;" viewBox="0 0 57.6923 43.5112" fill="none" xmlns="http://www.w3.org/2000/svg">
<g id="Group">
<path id="Vector" d="M12.219 15.3781C7.97823 15.3781 4.5299 11.9297 4.5299 7.68903C4.5299 3.44831 7.97823 0 12.219 0C16.4597 0 19.908 3.44831 19.908 7.68903C19.908 11.9297 16.4597 15.3781 12.219 15.3781ZM12.219 1.91816C9.03295 1.91816 6.4426 4.50849 6.4426 7.69449C6.4426 10.8805 9.03295 13.4708 12.219 13.4708C15.405 13.4708 17.9953 10.8805 17.9953 7.69449C17.9953 4.50849 15.405 1.91816 12.219 1.91816Z" fill="var(--fill-0, #05594F)"/>
<path id="Vector_2" d="M45.4298 15.3781C41.1891 15.3781 37.7407 11.9297 37.7407 7.68903C37.7407 3.44831 41.1891 0 45.4298 0C49.6705 0 53.1189 3.44831 53.1189 7.68903C53.1189 11.9297 49.6705 15.3781 45.4298 15.3781ZM45.4298 1.91816C42.2438 1.91816 39.6534 4.50849 39.6534 7.69449C39.6534 10.8805 42.2438 13.4708 45.4298 13.4708C48.6158 13.4708 51.2062 10.8805 51.2062 7.69449C51.2062 4.50849 48.6158 1.91816 45.4298 1.91816Z" fill="var(--fill-0, #05594F)"/>
<path id="Vector_3" d="M20.2803 43.5057H6.3394C2.84188 43.5057 0.00015024 40.664 0.00015024 37.172V25.9308C0.00015024 21.4223 3.66708 17.7554 8.1756 17.7554H16.2691C20.5043 17.7554 24.0073 20.9305 24.4063 25.1438C24.4555 25.6685 24.0729 26.1384 23.5428 26.1876C23.0182 26.2423 22.5482 25.8543 22.499 25.3242C22.193 22.0999 19.5097 19.6626 16.2636 19.6626H8.17013C4.71633 19.6626 1.90739 22.4715 1.90739 25.9253V37.1665C1.90739 39.6038 3.89114 41.5875 6.33394 41.5875H20.2748C20.4169 41.5875 20.5535 41.5712 20.6902 41.5438C20.7831 41.522 20.8596 41.5056 20.947 41.4837C21.0618 41.4455 21.2039 41.3908 21.335 41.3198C21.3459 41.3143 21.3623 41.3034 21.3787 41.2979C21.499 41.2269 21.6083 41.1504 21.7066 41.0684C21.723 41.052 21.7449 41.0411 21.7613 41.0247C21.7613 41.0247 21.7886 41.0028 21.8323 40.9591C21.9471 40.8443 22.04 40.735 22.1329 40.6093L22.2695 40.3798C22.3569 40.2213 22.4334 40.0082 22.4772 39.7896C22.499 39.6912 22.51 39.6093 22.5209 39.5218C22.5209 39.4891 22.5264 39.418 22.5264 39.347C22.5264 38.8169 22.9526 38.3742 23.4827 38.3742C24.0128 38.3742 24.4391 38.7895 24.4391 39.3142C24.4391 39.4617 24.4336 39.5765 24.4227 39.6967C24.4227 39.7131 24.4227 39.7514 24.4172 39.7678C24.4008 39.9098 24.3789 40.041 24.3516 40.1722C24.2751 40.5766 24.133 40.97 23.9308 41.3252L23.7614 41.6149C23.745 41.6422 23.7286 41.6695 23.7068 41.6968C23.5428 41.9264 23.3789 42.1122 23.2149 42.2816C23.1275 42.3799 23.0127 42.4838 22.887 42.5767C22.7012 42.7242 22.499 42.8609 22.2804 42.992C22.2476 43.0139 22.2094 43.0303 22.1711 43.0467C21.9525 43.1614 21.7285 43.2543 21.4935 43.3254C21.3459 43.3691 21.2257 43.3964 21.1 43.4237C20.8322 43.4838 20.559 43.5112 20.2748 43.5112L20.2803 43.5057Z" fill="var(--fill-0, #05594F)"/>
<path id="Vector_4" d="M51.3476 43.5057H37.4067C37.1171 43.5057 36.8329 43.4729 36.5706 43.4128C36.4558 43.3909 36.3411 43.3636 36.2099 43.3254C35.6798 43.156 35.2153 42.9046 34.8 42.5767C34.6743 42.4838 34.554 42.3745 34.4447 42.2543C34.3136 42.1231 34.1496 41.9318 33.9857 41.7023C33.9638 41.675 33.9474 41.6477 33.931 41.6203L33.7726 41.3471C33.5649 40.9755 33.4228 40.582 33.3408 40.1612C33.319 40.0519 33.2971 39.9208 33.2807 39.7787C33.2807 39.7623 33.2807 39.7404 33.2753 39.724C33.2643 39.6038 33.2589 39.4781 33.2589 39.3579C33.2589 38.8278 33.6851 38.3852 34.2152 38.3852C34.7453 38.3852 35.1716 38.8005 35.1716 39.3251C35.1716 39.418 35.1716 39.4836 35.1825 39.5492C35.1934 39.6257 35.2044 39.7022 35.2208 39.7732C35.2645 40.0137 35.341 40.2213 35.4393 40.3962L35.565 40.6093C35.6634 40.7405 35.7508 40.8443 35.8383 40.9318C35.9093 41.0083 35.9312 41.0247 35.9421 41.0301C35.9585 41.0411 35.9749 41.0575 35.9913 41.0684C36.2263 41.2597 36.4941 41.4017 36.7782 41.4946C36.8329 41.511 36.9149 41.5274 36.9968 41.5438C37.1335 41.5766 37.2755 41.593 37.4176 41.593H51.3585C53.7959 41.593 55.7796 39.6093 55.7796 37.172V25.9308C55.7796 22.477 52.9707 19.6681 49.5169 19.6681H41.4234C38.1609 19.6681 35.4831 22.1163 35.1989 25.357C35.1497 25.8816 34.6907 26.2696 34.1606 26.2259C33.6359 26.1767 33.2479 25.7122 33.2917 25.1876C33.6687 20.9468 37.1608 17.7554 41.4234 17.7554H49.5169C54.0254 17.7554 57.6923 21.4223 57.6923 25.9308V37.172C57.6923 40.664 54.8506 43.5057 51.3585 43.5057H51.3476Z" fill="var(--fill-0, #05594F)"/>
<path id="Vector_5" d="M28.92 21.4823C25.2367 21.4823 22.2365 18.4821 22.2365 14.7988C22.2365 11.1155 25.2367 8.11531 28.92 8.11531C32.6033 8.11531 35.6036 11.1155 35.6036 14.7988C35.6036 18.4821 32.6033 21.4823 28.92 21.4823ZM28.92 10.028C26.2914 10.028 24.1492 12.1702 24.1492 14.7988C24.1492 17.4274 26.2914 19.5696 28.92 19.5696C31.5486 19.5696 33.6909 17.4274 33.6909 14.7988C33.6909 12.1702 31.5486 10.028 28.92 10.028Z" fill="var(--fill-0, #05594F)"/>
<g id="Group_2">
<path id="Vector_6" d="M38.9856 43.5054H18.7164V33.3791C18.7164 29.827 20.6619 26.7612 23.4927 25.2857C24.6349 24.6955 25.9191 24.3566 27.2853 24.3566H30.4112C31.8048 24.3566 33.1109 24.7009 34.2749 25.3239C37.0675 26.8049 38.9802 29.8543 38.9802 33.3791V43.5054H38.9856Z" fill="var(--fill-0, #34DC91)"/>
<path id="Vector_7" d="M20.312 43.5055H9.41504C8.88495 43.5055 8.45869 43.0793 8.45869 42.5492C8.45869 42.0191 8.88495 41.5928 9.41504 41.5928H20.312C21.5525 41.5928 22.5581 40.5873 22.5581 39.3468C22.5581 38.1063 21.5525 37.1008 20.312 37.1008H10.3386C9.40411 37.1008 8.58438 36.4723 8.33846 35.5706L6.46948 28.663C6.33286 28.1548 6.63342 27.6302 7.14166 27.4881C7.64989 27.3515 8.17452 27.652 8.31661 28.1603L10.1856 35.0678C10.202 35.1389 10.2676 35.1826 10.3386 35.1826H20.312C22.6072 35.1826 24.4708 37.0461 24.4708 39.3413C24.4708 41.6366 22.6072 43.5001 20.312 43.5001V43.5055Z" fill="var(--fill-0, #05594F)"/>
<path id="Vector_8" d="M48.3417 43.5055H37.4447C35.1495 43.5055 33.286 41.642 33.286 39.3468C33.286 37.0516 35.1495 35.1881 37.4447 35.1881H47.4181C47.4892 35.1881 47.5548 35.1389 47.5712 35.0678L49.4401 28.1603C49.5768 27.652 50.1014 27.3515 50.6151 27.4881C51.1233 27.6247 51.4239 28.1493 51.2873 28.663L49.4183 35.5706C49.1724 36.4723 48.3526 37.1008 47.4181 37.1008H37.4447C36.2042 37.1008 35.1987 38.1063 35.1987 39.3468C35.1987 40.5873 36.2042 41.5928 37.4447 41.5928H48.3417C48.8718 41.5928 49.2981 42.0191 49.2981 42.5492C49.2981 43.0793 48.8718 43.5055 48.3417 43.5055Z" fill="var(--fill-0, #05594F)"/>
</g>
<g id="Group_3">
<g id="Group_4">
<path id="Vector_9" d="M24.4714 39.3469C24.4714 41.6421 22.6079 43.5002 20.3181 43.5056H18.7169V41.5929H20.3126C21.5477 41.5929 22.5587 40.5874 22.5587 39.3469C22.5587 38.1064 21.5477 37.1008 20.3126 37.1008H18.7169V35.1882H20.3126C22.6024 35.1882 24.4714 37.0571 24.4714 39.3469Z" fill="var(--fill-0, #003E37)"/>
<path id="Vector_10" d="M35.1991 39.347C35.1991 40.5875 36.2101 41.593 37.4452 41.593H38.9808V43.5057H37.4452C35.1554 43.5057 33.2864 41.6422 33.2864 39.347C33.2864 37.0517 35.1554 35.1882 37.4452 35.1882H38.9808V37.1009H37.4452C36.2101 37.1009 35.1991 38.1119 35.1991 39.347Z" fill="var(--fill-0, #003E37)"/>
</g>
<path id="Vector_11" d="M24.4717 39.3469C24.4717 41.6421 22.6082 43.5002 20.3184 43.5056H18.7172V41.5929H20.3129C21.548 41.5929 22.559 40.5874 22.559 39.3469C22.559 38.1064 21.548 37.1008 20.3129 37.1008H18.7172V35.1882H20.3129C22.6027 35.1882 24.4717 37.0571 24.4717 39.3469Z" fill="var(--fill-0, #003E37)"/>
<path id="Vector_12" d="M35.1994 39.347C35.1994 40.5875 36.2104 41.593 37.4455 41.593H38.9811V43.5057H37.4455C35.1557 43.5057 33.2867 41.6422 33.2867 39.347C33.2867 37.0517 35.1557 35.1882 37.4455 35.1882H38.9811V37.1009H37.4455C36.2104 37.1009 35.1994 38.1119 35.1994 39.347Z" fill="var(--fill-0, #003E37)"/>
</g>
</g>
</svg>
