<svg preserveAspectRatio="none" width="100%" height="100%" overflow="visible" style="display: block;" viewBox="0 0 57.6923 57.6923" fill="none" xmlns="http://www.w3.org/2000/svg">
<g id="Group">
<path id="Vector" d="M28.8462 57.6923C12.9404 57.6923 0 44.7519 0 28.8461C0 12.9404 12.9404 0 28.8462 0C44.7519 0 57.6923 12.9404 57.6923 28.8461C57.6923 44.7519 44.7519 57.6923 28.8462 57.6923ZM28.8462 1.95C14.0135 1.95 1.95 14.0135 1.95 28.8461C1.95 43.6788 14.0135 55.7423 28.8462 55.7423C43.6788 55.7423 55.7423 43.6788 55.7423 28.8461C55.7423 14.0135 43.6788 1.95 28.8462 1.95Z" fill="var(--fill-0, #05594F)"/>
<path id="Vector_2" d="M46.3521 23.654C46.1906 23.152 45.781 22.7828 45.2618 22.6732L35.2694 20.5097L30.1233 11.677C29.8579 11.2213 29.3791 10.9444 28.8483 10.9444C28.3175 10.9444 27.8444 11.2155 27.5733 11.677L22.4271 20.5097L12.4348 22.6732C11.9214 22.7828 11.506 23.1636 11.3444 23.6597C11.1829 24.1559 11.2983 24.7097 11.6444 25.0963L18.4579 32.7232L17.4252 42.8944C17.3733 43.4194 17.5983 43.9213 18.0252 44.2328C18.2848 44.4174 18.5848 44.5155 18.8848 44.5155C19.0867 44.5155 19.2887 44.4751 19.4848 44.3886L28.8425 40.2636L38.2002 44.3886C38.6848 44.602 39.2329 44.5444 39.6598 44.2328C40.0867 43.9213 40.3117 43.4194 40.2598 42.8944L39.2271 32.7232L46.0406 25.0963C46.3867 24.7097 46.5021 24.1559 46.3406 23.6597L46.3521 23.654Z" fill="var(--fill-0, #34DC91)"/>
</g>
</svg>
