<svg preserveAspectRatio="none" width="100%" height="100%" overflow="visible" style="display: block;" viewBox="0 0 63.1434 31.0092" fill="none" xmlns="http://www.w3.org/2000/svg">
<g id="Forbes Advisor">
<path id="Union" d="M16.0558 4.63281C16.6015 4.56818 17.1538 4.56555 17.7111 4.65137C18.2091 4.72766 18.697 4.83046 19.1642 5C19.5213 5.12927 19.868 5.31546 20.1847 5.52734C20.53 5.75933 20.8483 6.03405 21.1056 6.37402C21.3811 6.73853 21.6278 7.11254 21.8185 7.5332C22.0198 7.97811 22.1418 8.44122 22.2668 8.90625C22.3155 9.0895 22.315 9.28591 22.3351 9.47656C22.3542 9.65757 22.3698 9.83861 22.3888 10.0186C22.48 10.8514 22.4189 11.6688 22.1974 12.4805C22.0311 13.0875 21.8084 13.6653 21.4758 14.1982C20.963 15.016 20.2829 15.6582 19.4133 16.083C18.857 16.3543 18.2707 16.5374 17.6476 16.5957C17.174 16.6402 16.7013 16.6167 16.2287 16.6357C15.8589 16.6506 15.5132 16.5564 15.1603 16.4727C14.4898 16.3127 13.8809 16.0243 13.3322 15.6133C12.8384 15.2424 12.4362 14.7813 12.1066 14.2578C11.6893 13.5967 11.4924 12.8573 11.3166 12.1094C11.2043 11.6294 11.2123 11.1417 11.2101 10.6543L11.2082 10.6533C11.2082 10.38 11.1941 10.1052 11.2121 9.83398C11.227 9.62005 11.2771 9.40802 11.3205 9.19727C11.4794 8.42171 11.7547 7.69344 12.1965 7.03125C12.4359 6.67207 12.6975 6.33297 13.009 6.03418C13.4772 5.58509 14.0112 5.24154 14.6076 4.9873C15.0727 4.78818 15.5654 4.69109 16.0558 4.63281ZM48.4006 4.6123C48.8551 4.54343 49.3082 4.49984 49.7638 4.55176C50.2934 4.61214 50.8228 4.7049 51.3068 4.93359C51.6935 5.1158 52.0425 5.36259 52.3508 5.67188C52.5934 5.91556 52.8046 6.17536 52.9826 6.46777C53.3185 7.02089 53.5124 7.61976 53.593 8.25977C53.6396 8.62851 53.7043 8.99641 53.7414 9.36621C53.7625 9.58442 53.7453 9.806 53.7453 10.0645H47.0685C47.0685 10.1968 47.0632 10.3106 47.0695 10.4229C47.0864 10.7087 47.0701 11.0041 47.1388 11.2783C47.2543 11.7414 47.3209 12.2221 47.5519 12.6523C47.6175 12.7741 47.657 12.9087 47.7258 13.0283C48.1125 13.702 48.6774 14.1911 49.3713 14.5195C49.615 14.635 49.898 14.6743 50.1672 14.7305C50.3303 14.7654 50.4998 14.7737 50.6662 14.7832C51.5033 14.8309 52.2793 14.6311 52.9924 14.1914C53.0368 14.1639 53.0835 14.1376 53.1301 14.1133C53.3247 14.016 53.4356 14.021 53.5383 14.1318C53.6644 14.2675 53.7029 14.4778 53.6213 14.624C53.5874 14.6853 53.5398 14.7392 53.4933 14.792C53.0218 15.3165 52.4801 15.7563 51.8508 16.0752C51.3634 16.3231 50.8443 16.5126 50.3029 16.5762C49.789 16.6366 49.2654 16.6119 48.7463 16.6299C48.1094 16.6532 47.5168 16.4582 46.9553 16.2061C46.3428 15.9306 45.7955 15.5401 45.3293 15.041C44.525 14.1785 44.0334 13.1621 43.7961 12.0156C43.6838 11.4711 43.6841 10.9172 43.7053 10.3652C43.7201 9.98922 43.755 9.61422 43.7931 9.23926C43.8048 9.13017 43.8694 9.02802 43.8928 8.91895C44.0273 8.2853 44.2612 7.68944 44.5812 7.12891C44.8651 6.63227 45.2229 6.19808 45.6613 5.82422C46.0152 5.52223 46.3825 5.24442 46.8127 5.06641C47.3233 4.85453 47.8497 4.69601 48.4006 4.6123ZM57.258 4.77734C58.0601 4.51248 58.8806 4.39845 59.7219 4.49805C60.2822 4.56478 60.8447 4.63017 61.3976 4.73926C61.7483 4.80812 62.0833 4.95645 62.4445 5.07617C62.4054 6.12049 62.5992 7.14184 62.5207 8.20508C62.34 8.25474 62.1754 8.30149 61.9767 8.35645C61.8443 8.04598 61.6982 7.76349 61.6008 7.4668C61.392 6.83233 61.0441 6.28862 60.506 5.90723C60.0537 5.58624 59.532 5.39526 58.9494 5.5C58.5871 5.56568 58.3176 5.77146 58.093 6.04688C57.7157 6.51098 57.7292 7.05173 57.8469 7.58789C57.885 7.76163 58.04 7.91956 58.1681 8.06152C58.3779 8.29459 58.6411 8.4629 58.9113 8.625C59.4527 8.94915 60.0409 9.16534 60.6183 9.41113C61.1258 9.62727 61.6048 9.90106 62.0402 10.2422C62.3167 10.4583 62.5718 10.7094 62.7424 11.0166C62.8706 11.2476 62.9766 11.5042 63.0285 11.7617C63.1122 12.177 63.1481 12.6023 63.1428 13.0293C63.1374 13.4403 63.046 13.8248 62.8967 14.2051C62.5565 15.0642 61.9554 15.6687 61.1291 16.0586C60.5961 16.3108 60.0457 16.519 59.4523 16.5635C59.1631 16.5847 58.8707 16.5592 58.5793 16.5635C58.0601 16.5698 57.5408 16.5944 57.0226 16.5859C56.8022 16.5817 56.5816 16.5225 56.3644 16.4727C55.9493 16.3773 55.5362 16.2759 55.1242 16.1689C54.9515 16.1234 54.7836 16.0536 54.6066 15.9932C54.596 15.9456 54.5746 15.8955 54.5724 15.8438C54.5481 15.0853 54.525 14.3278 54.507 13.5693C54.4996 13.278 54.5118 12.9866 54.5002 12.6953C54.4949 12.5459 54.5432 12.4637 54.6926 12.4404C54.7772 12.4267 54.8598 12.3886 54.9445 12.3779C55.113 12.3567 55.2125 12.4209 55.2824 12.5703C55.4265 12.8786 55.562 13.1932 55.7209 13.4941C55.9868 13.9962 56.3158 14.4486 56.7892 14.7812C57.1061 15.0038 57.4459 15.1559 57.839 15.1602C58.0507 15.1623 58.2623 15.1765 58.4728 15.167C59.2908 15.1299 60.2638 14.2423 59.9123 13.1309C59.8116 12.813 59.635 12.5781 59.3722 12.3916C58.8605 12.0282 58.2869 11.787 57.7053 11.5645C57.1352 11.3472 56.5667 11.1294 56.0539 10.7861C55.5749 10.4651 55.2121 10.0424 54.9758 9.52637C54.7619 9.05923 54.6982 8.55417 54.7013 8.03516C54.7056 7.40787 54.8846 6.848 55.2131 6.32031C55.6984 5.54056 56.4008 5.06023 57.258 4.77734ZM35.8439 0.0107422C35.846 1.00778 35.8467 2.00589 35.8488 3.00293C35.8488 3.69168 35.8506 4.38059 35.8527 5.06934C35.8527 5.11166 35.8592 5.15306 35.8635 5.21973C36.0316 5.16158 36.1882 5.11923 36.3342 5.05371C37.0971 4.71464 37.907 4.63004 38.7219 4.69043C39.5176 4.74977 40.2369 5.0524 40.8801 5.54297C41.4575 5.98377 41.9159 6.52063 42.2306 7.16699C42.4288 7.57494 42.5988 8.00574 42.7111 8.44336C42.8053 8.81201 42.8143 9.2054 42.8312 9.58887C42.8503 10.038 42.8619 10.4904 42.8322 10.9385C42.8004 11.4226 42.7252 11.9046 42.5441 12.3633C42.453 12.5922 42.3936 12.8344 42.3078 13.0654C42.1319 13.5358 41.872 13.9605 41.5627 14.3535C41.159 14.8664 40.6668 15.286 40.1105 15.624C39.5035 15.9926 38.8445 16.2366 38.1496 16.3828C37.4079 16.5396 36.6564 16.4958 35.9084 16.4873C35.402 16.482 34.8976 16.4307 34.3986 16.3301C33.8211 16.2135 33.239 16.1113 32.6584 16.0117C32.5474 15.9926 32.5042 15.9455 32.5031 15.8418V15.71C32.5052 13.4415 32.5047 11.1728 32.509 8.9043C32.509 8.49953 32.5456 8.09325 32.5392 7.68848C32.517 6.4531 32.4841 5.21878 32.4523 3.9834C32.4417 3.59558 32.4398 3.20503 32.4006 2.81934C32.3624 2.43902 32.2779 2.06512 32.0236 1.75684C31.9855 1.71029 31.9446 1.6519 31.8918 1.63281C31.6906 1.55762 31.4882 1.47072 31.2785 1.43359C30.8398 1.35412 30.9192 1.32646 30.9181 0.986328C30.9182 0.952477 30.9309 0.918371 30.9426 0.862305C31.2963 0.791353 31.6532 0.718413 32.009 0.647461C32.6309 0.522432 33.2521 0.39292 33.8762 0.276367C34.39 0.179953 34.9061 0.0973716 35.4221 0.0136719C35.5247 -0.00325813 35.6317 0.00419997 35.7365 0C35.7725 0.003178 35.8079 0.00756364 35.8439 0.0107422ZM12.8928 0.560547C12.8981 1.00126 12.8991 1.44308 12.9055 1.88379C12.9182 2.87029 12.9338 3.85725 12.9465 4.84375C12.9464 4.87759 12.9373 4.91262 12.9299 4.96973C12.7381 5.01105 12.5457 5.06213 12.3508 5.0918C12.1421 5.12353 12.0477 5.04277 11.9523 4.80762C11.7955 4.42086 11.6576 4.02402 11.468 3.65527C11.2963 3.32167 11.0791 3.00791 10.8556 2.70605C10.6226 2.39263 10.3047 2.17266 9.96795 1.97461C9.48901 1.69169 8.96856 1.6053 8.42498 1.60742C7.71825 1.60954 7.01257 1.60734 6.30584 1.6084C6.22006 1.6084 6.13422 1.61588 6.03045 1.62012C5.9086 3.66092 5.89159 5.68702 5.90643 7.74902C6.13844 7.74903 6.36445 7.75546 6.58904 7.74805C6.87079 7.73852 7.15512 7.72993 7.43475 7.69922C8.22692 7.61123 8.57107 7.35572 8.87615 6.63867C9.01916 6.30182 9.1082 5.94146 9.22576 5.57812H9.93475V11.0762H9.21307C9.20035 10.6958 9.06092 10.3543 8.93377 10.0078C8.72183 9.43043 8.31991 9.06695 7.716 8.97266C7.33459 8.91334 6.94361 8.91637 6.55584 8.89941C6.34711 8.88988 6.13731 8.89746 5.9201 8.89746C5.91271 8.95764 5.90453 8.99168 5.90447 9.02441C5.90659 9.88906 5.89818 10.7555 5.91619 11.6201C5.92682 12.1211 5.99722 12.6201 6.00994 13.1211C6.02054 13.5692 6.10671 14.0046 6.24334 14.4199C6.38317 14.8447 6.63093 15.2319 7.10858 15.3623C7.41268 15.446 7.72894 15.4906 8.03729 15.5605C8.1443 15.5849 8.29775 15.5726 8.32635 15.7061C8.35907 15.8574 8.3493 16.0192 8.34295 16.1758C8.34189 16.2096 8.27702 16.2598 8.23358 16.2695C8.0991 16.3002 7.96002 16.333 7.82342 16.333C5.89917 16.3298 3.97431 16.3208 2.04901 16.3145C1.47481 16.3123 0.901524 16.3145 0.327326 16.3145C0.233094 16.3144 0.138847 16.3033 0.0255678 16.2959C0.0149792 16.136 -0.00191348 15.9961 0.000177154 15.8574C0.00229637 15.6667 0.0467522 15.6123 0.237482 15.5625C0.431363 15.5117 0.631742 15.4833 0.822443 15.4219C1.10216 15.3318 1.37232 15.2383 1.59588 15.0137C1.85966 14.7488 1.96385 14.4258 2.04119 14.0889C2.10265 13.8219 2.12881 13.543 2.14471 13.2686C2.18603 12.5554 2.23715 11.8421 2.24139 11.1279C2.2541 9.16771 2.25304 7.20827 2.24139 5.24805C2.2382 4.63152 2.20222 4.01391 2.1535 3.39844C2.12595 3.0467 2.05228 2.698 1.98553 2.35156C1.93679 2.09938 1.8099 1.87736 1.65838 1.67285C1.46238 1.4092 1.16882 1.31178 0.872247 1.2334C0.598868 1.16135 0.318933 1.11346 0.0148256 1.04883L0.0158022 1.04785V0.351562H12.8752C12.8815 0.424656 12.8917 0.49275 12.8928 0.560547ZM29.6486 4.67773C30.0915 4.49868 30.5665 4.53703 31.0285 4.58789C31.2381 4.61121 31.4436 4.69996 31.6437 4.77832C31.8917 4.87474 31.9035 4.89862 31.8166 5.14551C31.5856 5.79708 31.3479 6.44535 31.1096 7.09375C31.0152 7.35018 30.9164 7.60605 30.8137 7.86035C30.785 7.93026 30.7359 7.99161 30.6935 8.06152C30.4436 7.96516 30.2148 7.86339 29.9787 7.78711C29.5432 7.64618 29.1104 7.48488 28.6388 7.52832C28.2374 7.5654 27.8626 7.6759 27.5236 7.90039C27.3902 7.98827 27.3196 8.10363 27.3195 8.2666C27.3174 9.01679 27.3098 9.76739 27.3088 10.5176C27.3077 11.0377 27.2995 11.559 27.3185 12.0781C27.3429 12.7636 27.3985 13.4483 27.425 14.1348C27.4366 14.4325 27.4689 14.7204 27.6066 14.9863C27.7369 15.2363 27.9121 15.4147 28.2267 15.4316C28.5478 15.4486 28.867 15.5093 29.2082 15.5527V16.1934C29.0334 16.241 22.66 16.2537 22.3576 16.2061V15.5703C22.6299 15.5036 22.8885 15.4492 23.1418 15.375C23.4035 15.2976 23.5549 15.1084 23.6662 14.8584C23.8144 14.5247 23.8326 14.1707 23.8654 13.8223C23.9088 13.3668 23.9064 12.9059 23.9191 12.4473C23.935 11.892 23.9574 11.3355 23.9553 10.7803C23.9521 9.97716 23.9451 9.17404 23.9123 8.37305C23.8932 7.9153 23.8339 7.45734 23.7619 7.00488C23.7142 6.70192 23.5983 6.4089 23.2668 6.30078C23.0941 6.24465 22.9098 6.213 22.7287 6.19922C22.4267 6.17803 22.3404 6.09755 22.3605 5.7998C22.3659 5.73115 22.3819 5.6625 22.3957 5.5791C24.0359 5.21567 25.6825 4.8954 27.3439 4.59766C27.4329 4.99923 27.3134 5.36824 27.3166 5.74121C27.3197 6.11091 27.2941 6.48089 27.2814 6.85059C27.292 6.88018 27.3021 6.90888 27.3127 6.93848C27.3328 6.90882 27.3541 6.88025 27.3742 6.85059H27.3713C27.6245 6.35681 27.9565 5.92405 28.339 5.52246C28.7099 5.13363 29.1633 4.87481 29.6486 4.67773ZM36.6955 6.1377C36.4445 6.16943 36.1925 6.17971 35.967 6.28027L35.964 6.2793C35.9418 6.81227 35.9121 7.3296 35.9015 7.84668C35.892 8.27785 35.9042 8.71035 35.9074 9.14258C35.9191 10.9756 35.9308 12.8076 35.9435 14.6406C35.9446 14.8525 35.947 15.0645 35.965 15.2754C35.9756 15.393 36.0105 15.5128 36.0539 15.624C36.0973 15.7362 36.1841 15.798 36.3176 15.7832C36.4818 15.7641 36.6484 15.7535 36.8137 15.7461C37.3042 15.7238 37.6657 15.46 37.9709 15.1104C38.3014 14.7311 38.5238 14.2869 38.6965 13.8154C38.9306 13.1766 39.128 12.5216 39.1789 11.8467C39.2382 11.0479 39.2131 10.2424 39.2248 9.44043C39.2248 9.40546 39.2235 9.36887 39.215 9.33496C39.1165 8.95035 39.0727 8.55591 38.9318 8.17871C38.7231 7.61935 38.4946 7.08016 38.0412 6.66699C37.6587 6.3185 37.2464 6.06672 36.6955 6.1377ZM17.5998 5.82617C17.0053 5.28471 16.2311 5.33668 15.7394 5.90039C15.3877 6.30408 15.1974 6.80489 15.0734 7.32617C14.9855 7.69597 14.8747 8.06059 14.8556 8.44629C14.8408 8.74191 14.7713 9.03551 14.7629 9.33008C14.748 9.89375 14.7502 10.4587 14.7619 11.0234C14.7746 11.6601 14.7786 12.2999 14.9279 12.9238C15.0445 13.4123 15.1338 13.9133 15.3478 14.3721C15.5248 14.7524 15.7184 15.1265 16.05 15.4072C16.3932 15.6973 16.783 15.8229 17.2131 15.6895C17.6675 15.5486 18.0413 15.2692 18.2512 14.835C18.4408 14.443 18.5704 14.0295 18.6457 13.5898C18.7199 13.1554 18.7733 12.7186 18.8273 12.2842C18.8845 11.8224 18.8759 11.3521 18.8918 10.9834L18.8908 10.9844C18.8569 10.2193 18.9322 9.54906 18.7902 8.88574C18.7235 8.5743 18.7411 8.24389 18.6691 7.93457C18.4858 7.14839 18.2249 6.39623 17.5998 5.82617ZM49.4055 5.4668C49.0187 5.33118 48.6766 5.39702 48.3693 5.67773C47.8671 6.13655 47.636 6.73965 47.4601 7.37012C47.3818 7.65083 47.3513 7.94561 47.2814 8.22949C47.2095 8.52173 47.2236 8.81298 47.2258 9.12109C47.7045 9.1211 48.161 9.13941 48.6154 9.11719C49.2002 9.08858 49.7812 8.98136 50.3703 9.00781C50.3947 9.00887 50.4206 8.99969 50.464 8.99121L50.465 8.99023C50.4746 8.94785 50.4865 8.92191 50.4865 8.89648C50.4897 8.26515 50.4403 7.63702 50.3058 7.02051C50.22 6.62527 50.1266 6.22409 49.884 5.88184C49.7569 5.70292 49.6182 5.54204 49.4055 5.4668Z" fill="var(--fill-0, white)"/>
<path id="Vector" d="M27.3729 6.85045C27.3528 6.88012 27.3316 6.90873 27.3115 6.9384C27.3009 6.90873 27.2913 6.88012 27.2808 6.85045C27.3115 6.85045 27.3422 6.85045 27.3729 6.85045Z" fill="var(--fill-0, white)"/>
<path id="Union_2" d="M38.2277 20.5608C39.3072 20.6308 40.2533 20.9993 40.9875 21.8255C41.0097 21.8508 41.0259 21.8828 41.0607 21.9378C40.7598 22.244 40.4165 22.501 40.1262 22.7659C39.9737 22.6336 39.8298 22.518 39.6974 22.3899C39.0077 21.7224 37.9003 21.5562 37.0431 21.9905C36.7316 22.1484 36.5103 22.394 36.3439 22.6907C36.3039 22.7627 36.3039 22.859 36.2912 22.9446C36.2138 23.4373 36.353 23.8613 36.7482 24.1643C36.9972 24.3561 37.2756 24.5225 37.5627 24.6497C38.1465 24.9093 38.7512 25.1208 39.3361 25.3772C39.9072 25.6273 40.4285 25.9635 40.8078 26.471C41.062 26.811 41.2357 27.1905 41.2453 27.6311C41.2506 27.8918 41.3202 28.1559 41.299 28.4134C41.2058 29.5703 40.5936 30.3532 39.5226 30.7835C38.943 31.0155 38.3363 31.0281 37.7238 30.9964C36.7459 30.9455 35.8915 30.5929 35.1594 29.9466C34.9073 29.7241 34.6998 29.4645 34.5441 29.1467L34.5431 29.1458C34.8589 28.9127 35.1481 28.6965 35.4416 28.4856C35.6163 28.3607 35.6556 28.3668 35.7814 28.5413C36.077 28.9503 36.4606 29.2648 36.9035 29.4905C37.3379 29.712 37.8196 29.7557 38.3039 29.7366C38.7382 29.7185 39.1312 29.5853 39.4787 29.3225C39.6641 29.1816 39.7898 29.0013 39.8703 28.7757C40.2697 27.662 39.5253 26.9424 38.8185 26.6712C38.3069 26.4741 37.7783 26.3225 37.2678 26.1223C36.7358 25.9147 36.2353 25.6372 35.8019 25.261C35.1026 24.6549 34.877 23.8591 34.966 22.969C35.0858 21.7813 35.8107 21.0922 36.8957 20.7288C37.3258 20.5848 37.7743 20.5312 38.2277 20.5608ZM47.3215 20.5012C47.8077 20.461 48.2781 20.5127 48.759 20.6038C50.1015 20.8591 51.1679 21.539 51.9806 22.6145C52.4075 23.1803 52.6523 23.8363 52.8049 24.5344C52.9722 25.3036 52.9833 26.0653 52.8361 26.8323C52.7853 27.0972 52.7036 27.3592 52.6125 27.6145C52.4652 28.0288 52.2544 28.4137 52.0138 28.7835C51.3771 29.7634 50.4799 30.3878 49.3781 30.7385C48.6514 30.9695 47.9085 30.9788 47.1574 30.9163C46.7517 30.8824 46.3614 30.7745 45.9758 30.6643C45.5371 30.5382 45.1519 30.2826 44.7736 30.0315C44.0374 29.542 43.5034 28.8703 43.0881 28.0969C42.7501 27.4675 42.6109 26.7869 42.5558 26.0833C42.5442 25.9339 42.538 25.7844 42.5285 25.635C42.5126 24.9718 42.6546 24.3273 42.9025 23.7298C43.2755 22.8324 43.8423 22.0599 44.6506 21.4846C45.4538 20.9146 46.3392 20.5839 47.3215 20.5012ZM10.0627 30.7551C9.86515 30.8081 9.02556 30.8212 8.65057 30.7757C8.23841 29.8252 7.8195 28.862 7.39568 27.8841C7.33111 27.8788 7.26225 27.8684 7.19451 27.8684C5.75574 27.8663 4.31696 27.8646 2.87713 27.8635C2.66097 27.8635 2.64778 27.8894 2.55877 28.095C2.32785 28.6278 2.07769 29.151 1.84783 29.6848C1.69527 30.0387 1.5663 30.4024 1.4201 30.7796H0.000177154C1.48343 27.3893 2.95915 24.0159 4.44451 20.6214H5.56365C7.06296 23.9993 8.56231 27.3772 10.0627 30.7551ZM11.466 20.6243C12.5329 20.6243 13.6012 20.6129 14.6681 20.6331C15.1417 20.6416 15.6058 20.7445 16.0656 20.8801C17.0022 21.1556 17.7926 21.6533 18.4601 22.3557C18.8151 22.7287 19.1116 23.1383 19.2599 23.6448C19.3521 23.9604 19.51 24.2605 19.5715 24.5803C19.6911 25.1979 19.734 25.8144 19.6408 26.4563C19.4755 27.6028 18.9743 28.5578 18.1701 29.3567C17.4719 30.0496 16.6083 30.4598 15.6506 30.677C15.2618 30.765 14.8672 30.801 14.4699 30.801H11.5842C11.5335 30.801 11.4828 30.7955 11.4152 30.7913C11.411 30.7183 11.4045 30.6601 11.4045 30.6009V20.8323C11.4045 20.7793 11.4111 20.7271 11.4142 20.6741C11.4311 20.6583 11.4491 20.643 11.466 20.6272V20.6243ZM58.2512 20.6155C58.7353 20.6155 59.2131 20.6837 59.6613 20.8606C60.402 21.1531 60.9354 21.6554 61.176 22.4426C61.2787 22.7785 61.3644 23.1144 61.3644 23.4651C61.3644 24.2376 61.1169 24.9193 60.5744 25.4788C60.2375 25.8261 59.8074 26.0026 59.3498 26.1233C59.2332 26.154 59.1154 26.177 58.9533 26.2141C60.2481 27.7442 61.5193 29.2457 62.8332 30.7991H62.4338C62.046 30.7991 61.6565 30.7957 61.2687 30.801C61.1533 30.8031 61.0735 30.7671 60.9972 30.677C60.3446 29.9004 59.6883 29.1264 59.0324 28.3518C58.4688 27.6854 57.9069 27.016 57.339 26.3528C57.2808 26.285 57.1853 26.2138 57.1027 26.2073C56.8505 26.1882 56.5949 26.2014 56.3078 26.2014V30.7796H54.9377C54.8847 30.5988 54.8708 20.9272 54.9269 20.6253C54.9904 20.621 55.0594 20.6126 55.1271 20.6126C56.1687 20.6126 57.2096 20.6144 58.2512 20.6155ZM32.6457 20.6712V20.6721C32.6489 20.742 32.6555 20.8132 32.6555 20.8831C32.6555 24.0968 32.6546 27.3119 32.6535 30.5257C32.6535 30.5966 32.6498 30.6667 32.6467 30.7376C32.6329 30.7545 32.6194 30.7715 32.6056 30.7874H31.3664C31.3166 30.6009 31.2988 21.0217 31.3508 20.6233H32.6037C32.6175 20.6392 32.6319 20.6553 32.6457 20.6712ZM27.7619 25.6975C27.0446 27.3875 26.3182 29.0734 25.5871 30.7825H24.4562C23.0258 27.4088 21.5936 24.0276 20.1515 20.6243H21.6379C22.743 23.2744 23.8867 25.9194 25.0109 28.5716C25.0288 28.5694 25.0467 28.5659 25.0656 28.5637C26.1919 25.9169 27.32 23.2703 28.4474 20.6214V20.6204H29.8986C29.1803 22.3283 28.476 24.0151 27.7619 25.6975ZM50.5129 22.9544C49.4056 21.8545 48.0906 21.4689 46.5881 21.9446C45.2371 22.3716 44.3932 23.3167 44.0012 24.6741C43.8602 25.1626 43.7967 25.6673 43.8508 26.1653C43.8911 26.5318 44.0301 26.8919 44.1603 27.2425C44.4125 27.9217 44.8484 28.4732 45.4269 28.9055C45.6789 29.094 45.9437 29.2852 46.2316 29.4007C46.5442 29.5246 46.8816 29.5974 47.2238 29.6419C47.8552 29.7234 48.4592 29.6737 49.0588 29.4407C50.539 28.8664 51.6132 27.4779 51.6281 25.7434C51.6323 25.2338 51.492 24.5635 51.2844 24.1057C51.2198 23.9638 51.1711 23.809 51.0832 23.6819C50.9063 23.4298 50.73 23.1694 50.5129 22.9544ZM12.9435 21.9602C12.9024 21.9603 12.8613 21.9789 12.8117 21.9905V29.596L12.8127 29.5969C12.8963 29.6033 12.98 29.6155 13.0637 29.6155C13.461 29.6197 13.8577 29.618 14.2551 29.6233C14.8418 29.6317 15.4074 29.5369 15.9592 29.3294C17.0473 28.9204 17.8085 28.187 18.1857 27.0862C18.5798 25.9388 18.4371 24.8228 17.8439 23.7835C17.2125 22.6763 16.1812 22.142 14.9533 22.0042C14.29 21.93 13.6143 21.9698 12.9435 21.9602ZM5.0119 22.5706C4.96951 22.6002 4.93842 22.61 4.92889 22.6301C4.82937 22.8429 4.72909 23.0548 4.63592 23.2708C4.38691 23.8483 4.14698 24.4308 3.89373 25.0061C3.69245 25.4627 3.47319 25.911 3.26873 26.3665C3.23063 26.4512 3.2209 26.5496 3.19549 26.6555H6.8244C6.21198 25.2749 5.61372 23.9268 5.0119 22.5706ZM56.884 21.9602H56.3176V25.0061C57.0313 25.0061 57.7101 25.0006 58.3879 25.0091C58.6199 25.0122 58.8407 24.9704 59.0568 24.9026C59.473 24.7712 59.7963 24.5508 59.9816 24.1155C60.2718 23.432 60.0201 22.3182 59.0422 22.0618C58.823 22.0047 58.592 21.9715 58.3654 21.9651C57.8717 21.9503 57.3777 21.9602 56.884 21.9602Z" fill="var(--fill-0, white)"/>
</g>
</svg>
