<svg preserveAspectRatio="none" width="100%" height="100%" overflow="visible" style="display: block;" viewBox="0 0 602.885 160.455" fill="none" xmlns="http://www.w3.org/2000/svg">
<g id="Group 1533210380">
<g id="Frame 2147224628">
<path id="Vector" d="M174.609 0H218.609V44H174.609V0Z" fill="var(--fill-0, #0A9742)"/>
<path id="Vector_2" d="M196.609 29.39L202.703 27.73L205.259 36L196.609 29.39ZM210.607 18.696H199.912L196.608 8L193.306 18.693L182.609 18.691L191.262 25.304L187.959 36L196.611 29.39L201.957 25.307L210.609 18.697H210.607V18.696Z" fill="var(--fill-0, #EDF6F2)"/>
<path id="Vector_3" d="M226.609 0H270.609V44H226.609V0Z" fill="var(--fill-0, #0A9742)"/>
<path id="Vector_4" d="M248.609 29.39L254.703 27.73L257.259 36L248.609 29.39ZM262.607 18.696H251.912L248.608 8L245.306 18.693L234.609 18.691L243.262 25.304L239.959 36L248.611 29.39L253.957 25.307L262.609 18.697H262.607V18.696Z" fill="var(--fill-0, #EDF6F2)"/>
<path id="Vector_5" d="M278.609 0H322.609V44H278.609V0Z" fill="var(--fill-0, #0A9742)"/>
<path id="Vector_6" d="M300.609 29.39L306.703 27.73L309.259 36L300.609 29.39ZM314.607 18.696H303.912L300.608 8L297.306 18.693L286.609 18.691L295.262 25.304L291.959 36L300.611 29.39L305.957 25.307L314.609 18.697H314.607V18.696Z" fill="var(--fill-0, #EDF6F2)"/>
<path id="Vector_7" d="M330.609 0H374.609V44H330.609V0Z" fill="var(--fill-0, #0A9742)"/>
<path id="Vector_8" d="M352.609 29.39L358.703 27.73L361.259 36L352.609 29.39ZM366.607 18.696H355.912L352.608 8L349.306 18.693L338.609 18.691L347.262 25.304L343.959 36L352.611 29.39L357.957 25.307L366.609 18.697H366.607V18.696Z" fill="var(--fill-0, #EDF6F2)"/>
<path id="Vector_9" d="M382.609 0H426.609V44H382.609V0Z" fill="var(--fill-0, #0A9742)"/>
<path id="Vector_10" d="M404.609 29.39L410.703 27.73L413.259 36L404.609 29.39ZM418.607 18.696H407.912L404.608 8L401.306 18.693L390.609 18.691L399.262 25.304L395.959 36L404.611 29.39L409.957 25.307L418.609 18.697H418.607V18.696Z" fill="var(--fill-0, #EDF6F2)"/>
</g>
<path id="Vector_11" d="M12.093 105.999H0V105.781L2.26199 103.215V78.3329L0 75.7659V75.5489H19.662C23.794 76.3319 26.709 79.5509 26.709 83.3359C26.709 86.9459 24.186 89.5989 19.879 90.4259L27.492 103.345L30.232 105.781V105.999H20.184L12.702 91.4699H9.83099V103.215L12.093 105.781V105.999ZM9.83099 76.8969V89.7299H12.31C16.791 89.7299 19.27 87.7289 19.27 84.0319C19.27 79.7249 15.921 76.8969 10.657 76.8969H9.83099ZM47.405 106.652C45.143 106.652 43.359 105.129 43.142 102.997H42.837C40.488 105.39 37.922 106.652 35.529 106.652C32.397 106.652 30.266 104.564 30.266 101.605C30.266 98.2999 32.963 95.8639 39.14 93.7319L42.924 92.3829V90.0339C42.924 88.0769 41.489 86.8589 39.053 86.8589C36.399 86.8589 33.746 88.3379 32.136 90.7739L31.962 90.6869C32.919 85.7279 36.486 82.8569 41.75 82.8569C46.491 82.8569 49.797 85.1619 49.797 88.5119V102.345L52.103 103.563V103.78C51.233 105.52 49.362 106.652 47.405 106.652ZM36.486 99.4299C36.486 101.475 37.922 102.954 39.966 102.954C41.054 102.954 42.141 102.475 42.924 101.562V93.9499L40.88 94.7329C37.922 95.8629 36.486 97.4289 36.486 99.4299ZM60.306 106.652C57.653 106.652 55.173 105.52 54.477 102.606V85.9889H51.606V85.7709L60.567 78.6809H61.35V83.5089H66.918L66.57 85.9889H61.35V99.8219C61.35 102.084 62.655 103.041 64.395 103.041C65.5158 103.025 66.6006 102.643 67.484 101.953L67.658 102.127C66.396 104.911 63.525 106.652 60.306 106.652ZM79.025 106.652C72.5 106.652 67.976 102.04 67.976 95.1239C67.976 88.0339 72.761 82.8569 79.243 82.8569C84.55 82.8569 87.899 86.2929 89.03 93.0359H73.631C74.066 98.5169 77.155 101.91 81.809 101.91C84.811 101.91 87.377 100.431 89.161 97.6899L89.378 97.8209C88.378 103.345 84.55 106.652 79.025 106.652ZM77.894 84.5969C75.11 84.5969 73.588 87.0329 73.588 91.4699H82.636C81.766 86.5979 80.374 84.5969 77.894 84.5969ZM90.399 95.8199C90.399 88.3809 95.575 82.8569 102.492 82.8569C103.971 82.8569 105.406 83.1609 106.102 83.4659V77.2019L103.753 74.8529V74.6789L112.54 72.5039H112.975V102.475L115.063 104.694V104.911L106.755 106.652L106.189 102.954H105.928C103.666 105.651 101.796 106.652 99.36 106.652C94.14 106.652 90.399 102.127 90.399 95.8199ZM97.011 92.8189C97.011 98.3869 99.751 102.519 103.579 102.519C104.667 102.519 105.493 102.084 106.102 101.431V85.6409C105.406 85.0749 104.232 84.6839 102.927 84.6839C99.316 84.6839 97.011 87.7719 97.011 92.8189ZM358.575 106.652C351.615 106.652 347.091 102.04 347.091 94.9929C347.091 87.7729 351.833 82.8569 358.923 82.8569C365.84 82.8569 370.407 87.4679 370.407 94.5579C370.407 101.779 365.666 106.652 358.575 106.652ZM359.271 104.868C361.925 104.868 363.36 101.866 363.36 96.0379C363.36 88.9909 361.359 84.6399 358.227 84.6399C355.574 84.6399 354.138 87.6419 354.138 93.4709C354.138 100.518 356.139 104.868 359.271 104.868ZM380.942 88.5549V103.693L382.9 105.781V105.999H372.112V105.781L374.069 103.693V87.5119L371.764 85.2059V84.9889L379.985 82.8569H380.42L380.725 86.9459H381.029C383.422 84.2059 385.988 82.8569 388.859 82.8569C392.731 82.8569 395.428 85.3799 395.428 88.9469V103.693L397.385 105.781V105.999H386.554V105.781L388.555 103.563V90.2959C388.555 88.1639 387.25 86.8589 385.162 86.8589C383.77 86.8589 382.378 87.4239 380.942 88.5549ZM425.434 105.999H413.384V105.781L415.646 103.215V77.4629H413.123L406.033 82.2919H405.815V75.5489H433.046V82.2919H432.829L425.869 77.4629H423.172V103.215L425.434 105.781V105.999ZM434.583 103.693V87.5119L432.278 85.2059V85.0319L440.499 82.8569H440.934L441.239 87.5109H441.5C443.37 84.2059 445.023 82.8569 447.111 82.8569C447.981 82.8569 448.721 83.1179 449.112 83.4659V90.5129H448.895L444.501 87.5549C444.327 87.5119 444.197 87.5119 444.11 87.5119C443.196 87.5119 441.891 88.3819 441.456 89.4249V103.693L443.762 105.781V105.999H432.626V105.781L434.583 103.693ZM457.611 106.652C453.827 106.652 451.173 104.128 451.173 100.561V87.5109L448.868 85.2059V84.9889L457.611 82.8569H458.046V99.2129C458.046 101.388 459.264 102.649 461.309 102.649C462.657 102.649 463.962 102.084 465.398 100.953V87.5549L463.092 85.2499V85.0319L471.836 82.8569H472.271V102.475L474.402 104.65V104.868L466.224 106.608L465.615 102.562H465.311C462.962 105.303 460.395 106.652 457.611 106.652ZM484.071 106.652C481.635 106.652 477.981 105.955 476.415 105.172V99.7349H476.632L482.896 104.781C483.373 105.003 483.892 105.122 484.419 105.129C486.55 105.129 487.986 103.65 487.986 101.431C487.986 96.2549 476.763 98.1249 476.763 90.4259C476.763 85.9019 480.46 82.8569 486.028 82.8569C488.29 82.8569 491.118 83.3789 492.64 84.0749V88.8599H492.423L487.377 84.6399C487.072 84.5099 486.594 84.4229 486.072 84.4229C484.071 84.4229 482.722 85.7279 482.722 87.6849C482.722 92.8619 493.902 91.0349 493.902 98.6469C493.902 103.606 490.161 106.652 484.071 106.652ZM503.257 106.652C500.604 106.652 498.124 105.52 497.428 102.606V85.9889H494.557V85.7709L503.518 78.6809H504.301V83.5089H509.869L509.521 85.9889H504.301V99.8219C504.301 102.084 505.606 103.041 507.346 103.041C508.467 103.025 509.552 102.643 510.435 101.953L510.609 102.127C509.347 104.911 506.476 106.652 503.257 106.652ZM535.849 93.7319C535.849 101.17 530.629 106.652 523.669 106.652C522.234 106.652 520.842 106.434 520.146 106.086V112.393L522.756 114.482V114.699H511.315V114.482L513.273 112.393V87.4679L510.967 85.2059V84.9889L519.319 82.8569H519.711L520.059 86.5979H520.32C522.582 83.9009 524.452 82.8569 526.888 82.8569C532.065 82.8569 535.849 87.4239 535.849 93.7319ZM529.237 96.7329C529.237 91.1219 526.453 87.0329 522.625 87.0329C521.581 87.0329 520.711 87.4239 520.146 88.1199V103.867C520.798 104.476 521.973 104.824 523.234 104.824C526.932 104.824 529.237 101.778 529.237 96.7329ZM542.998 79.3329C540.692 79.3329 539.257 78.0279 539.257 75.9409C539.257 73.8089 540.692 72.5039 542.998 72.5039C545.303 72.5039 546.739 73.8089 546.739 75.9409C546.739 78.0289 545.303 79.3329 542.998 79.3329ZM548.392 105.999H537.604V105.825L539.561 103.693V87.5119L537.256 85.2489V85.0319L545.999 82.8569H546.434V103.693L548.392 105.825V105.999ZM561.214 105.999H550.426V105.781L552.384 103.606V77.1579L550.078 74.8529V74.6789L558.822 72.5039H559.257V103.606L561.214 105.781V105.999ZM574.471 106.652C567.511 106.652 562.987 102.04 562.987 94.9929C562.987 87.7729 567.729 82.8569 574.819 82.8569C581.736 82.8569 586.303 87.4679 586.303 94.5579C586.303 101.779 581.562 106.652 574.471 106.652ZM575.167 104.868C577.821 104.868 579.256 101.866 579.256 96.0379C579.256 88.9909 577.255 84.6399 574.123 84.6399C571.47 84.6399 570.034 87.6419 570.034 93.4709C570.034 100.518 572.035 104.868 575.167 104.868ZM595.533 106.652C592.88 106.652 590.4 105.52 589.704 102.606V85.9889H586.833V85.7709L595.794 78.6809H596.577V83.5089H602.145L601.797 85.9889H596.577V99.8219C596.577 102.084 597.882 103.041 599.622 103.041C600.743 103.025 601.828 102.643 602.711 101.953L602.885 102.127C601.623 104.911 598.752 106.652 595.533 106.652Z" fill="var(--fill-0, #272727)"/>
<path id="Vector_12" d="M134.192 74.3309L134.235 74.5489C131.277 75.8969 129.407 77.9849 129.407 80.1599C129.407 80.8559 129.624 81.4209 129.972 81.5959H132.539C133.67 81.8999 134.366 82.8569 134.366 84.1189C134.366 85.9449 132.974 87.2069 131.06 87.2069C128.406 87.2069 126.492 84.9019 126.492 81.7689C126.492 77.8979 129.624 74.8959 134.192 74.3309ZM143.37 74.3309L143.414 74.5489C140.456 75.8969 138.585 77.9849 138.585 80.1599C138.585 80.8559 138.803 81.4209 139.151 81.5959H141.717C142.848 81.8999 143.544 82.8569 143.544 84.1189C143.544 85.9449 142.152 87.2069 140.238 87.2069C137.585 87.2069 135.671 84.9019 135.671 81.7689C135.671 77.8979 138.803 74.8959 143.37 74.3309ZM170.61 105.999H146.119V105.781L148.381 103.215V78.2899L146.119 75.7669V75.5489H169.566V82.2049H169.348L162.388 77.4629H155.95V89.0339H162.519L166.869 85.5109H167.086V94.4709H166.869L162.519 90.9479H155.95V104.085H162.823L170.392 97.9079H170.61V105.999ZM186.177 103.693L181.566 96.8639L176.694 103.476L179.043 105.781V105.999H171.431V105.781L173.78 103.476L180.479 95.2979L174.128 85.8579L172.04 83.7269V83.5089H183.306V83.7269L181.653 85.8589L185.481 91.4699L189.483 86.0759L187.091 83.7269V83.5089H194.747V83.7269L192.354 86.0759L186.569 93.0799L193.746 103.693L195.834 105.781V105.999H184.568V105.781L186.177 103.693ZM204.614 106.652C198.481 106.652 194.392 102.127 194.392 95.3849C194.392 87.9899 199.264 82.8569 206.398 82.8569C208.486 82.8569 210.791 83.2919 212.227 83.9879V90.0339H211.966L205.571 84.7709C205.273 84.691 204.967 84.6473 204.658 84.6409C202.048 84.6409 200.003 88.2079 200.003 92.4269C200.003 97.9949 203.353 101.91 208.094 101.91C210.356 101.91 212.183 100.953 213.358 99.2129L213.575 99.3429C212.575 103.954 209.356 106.652 204.614 106.652ZM225.23 106.652C218.705 106.652 214.181 102.04 214.181 95.1239C214.181 88.0339 218.966 82.8569 225.447 82.8569C230.754 82.8569 234.104 86.2929 235.235 93.0359H219.836C220.271 98.5169 223.359 101.91 228.014 101.91C231.015 101.91 233.582 100.431 235.365 97.6899L235.583 97.8209C234.582 103.345 230.754 106.652 225.23 106.652ZM224.099 84.5969C221.315 84.5969 219.792 87.0329 219.792 91.4699H228.84C227.97 86.5979 226.578 84.5969 224.099 84.5969ZM247.653 105.999H236.865V105.781L238.822 103.606V77.1579L236.517 74.8529V74.6789L245.26 72.5039H245.695V103.606L247.653 105.781V105.999ZM260.475 105.999H249.687V105.781L251.645 103.606V77.1579L249.339 74.8529V74.6789L258.083 72.5039H258.518V103.606L260.475 105.781V105.999ZM273.297 106.652C266.772 106.652 262.248 102.04 262.248 95.1239C262.248 88.0339 267.033 82.8569 273.515 82.8569C278.822 82.8569 282.171 86.2929 283.302 93.0359H267.903C268.338 98.5169 271.427 101.91 276.081 101.91C279.083 101.91 281.649 100.431 283.433 97.6899L283.65 97.8209C282.65 103.345 278.822 106.652 273.297 106.652ZM272.166 84.5969C269.382 84.5969 267.86 87.0329 267.86 91.4699H276.908C276.038 86.5979 274.646 84.5969 272.166 84.5969ZM293.763 88.5559V103.693L295.72 105.781V105.999H284.932V105.781L286.89 103.693V87.5119L284.584 85.2059V84.9889L292.806 82.8569H293.241L293.545 86.9459H293.85C296.242 84.2059 298.809 82.8569 301.68 82.8569C305.551 82.8569 308.248 85.3799 308.248 88.9469V103.693L310.206 105.781V105.999H299.374V105.781L301.375 103.563V90.2959C301.375 88.1639 300.07 86.8589 297.982 86.8589C296.59 86.8589 295.198 87.4249 293.763 88.5559ZM319.171 106.652C316.518 106.652 314.038 105.52 313.342 102.606V85.9889H310.471V85.7709L319.432 78.6809H320.215V83.5089H325.783L325.435 85.9889H320.215V99.8219C320.215 102.084 321.52 103.041 323.26 103.041C324.381 103.025 325.466 102.643 326.349 101.953L326.523 102.127C325.261 104.911 322.39 106.652 319.171 106.652ZM326.133 86.9889L326.089 86.7719C329.047 85.4229 330.918 83.3359 330.918 81.1609C330.918 80.4639 330.7 79.8989 330.352 79.7249H327.786C326.655 79.4199 325.959 78.4639 325.959 77.2019C325.959 75.3749 327.351 74.1139 329.265 74.1139C331.918 74.1139 333.832 76.4189 333.832 79.5509C333.832 83.4219 330.7 86.4239 326.133 86.9889ZM335.311 86.9889L335.268 86.7719C338.226 85.4229 340.096 83.3359 340.096 81.1609C340.096 80.4639 339.879 79.8989 339.531 79.7249H336.964C335.833 79.4199 335.137 78.4639 335.137 77.2019C335.137 75.3749 336.529 74.1139 338.443 74.1139C341.097 74.1139 343.011 76.4189 343.011 79.5509C343.011 83.4219 339.879 86.4239 335.311 86.9889Z" fill="var(--fill-0, #0A9742)"/>
<path id="Vector_13" d="M205.07 148.839C205.07 143.775 207.854 140.391 212.366 140.391C216.878 140.391 219.638 143.775 219.638 148.839C219.638 153.855 216.974 157.287 212.366 157.287C207.758 157.287 205.07 153.855 205.07 148.839ZM207.35 148.839C207.35 152.775 209.294 155.391 212.366 155.391C215.438 155.391 217.358 152.775 217.358 148.839C217.358 144.903 215.438 142.263 212.366 142.263C209.27 142.263 207.35 144.903 207.35 148.839ZM229.268 145.575H231.308L227.012 156.999H224.972L220.964 145.575H223.1L224.972 151.383C225.38 152.559 225.644 153.471 226.052 154.599H226.1C226.484 153.495 226.844 152.439 227.252 151.335L229.268 145.575ZM242.71 151.647H234.166C234.262 154.215 235.606 155.559 237.694 155.559C239.782 155.559 240.814 154.215 241.294 153.327L242.758 154.383C242.062 155.631 240.382 157.287 237.646 157.287C234.406 157.287 232.126 155.127 232.126 151.239C232.126 147.687 234.382 145.311 237.55 145.311C240.958 145.311 242.71 147.783 242.71 151.311V151.647ZM234.19 150.135H240.598C240.574 148.359 239.518 146.847 237.526 146.847C235.486 146.847 234.31 148.191 234.19 150.135ZM245.241 145.575H247.233V147.735C247.569 146.607 248.745 145.383 250.593 145.383C250.857 145.383 251.049 145.407 251.265 145.455V147.327C251.012 147.28 250.755 147.256 250.497 147.255C248.361 147.255 247.233 148.719 247.233 151.119V156.999H245.241V145.575ZM259.973 147.855L257.789 147.543C257.477 146.847 257.333 146.151 257.333 145.311C257.333 142.551 259.469 140.391 262.805 140.391C266.261 140.391 268.181 142.647 268.181 145.599C268.181 150.231 262.493 153.615 260.333 155.175H268.397V156.999H257.357V155.295C259.219 154.006 261.006 152.611 262.709 151.119C264.581 149.463 265.973 148.023 265.973 145.695C265.973 143.559 264.533 142.215 262.661 142.215C260.501 142.215 259.445 143.799 259.445 145.575C259.445 146.535 259.757 147.399 259.973 147.855ZM270.742 154.095H273.142V156.831C273.142 158.535 272.758 160.335 270.694 160.455V159.183C271.558 158.991 271.87 158.343 271.87 157.239V156.999H270.742V154.095ZM284.435 152.967V156.999H282.395V152.967H274.931V151.431L282.515 140.679H284.435V151.167H287.171V152.967H284.435ZM277.187 151.167H282.395V147.975C282.395 146.703 282.515 143.871 282.539 143.199H282.515C282.059 143.943 280.355 146.727 279.779 147.519L277.187 151.167ZM301.034 148.887C301.034 153.159 299.522 157.287 294.89 157.287C290.354 157.287 288.722 153.375 288.722 148.887C288.722 144.495 290.474 140.391 294.89 140.391C299.21 140.391 301.034 144.303 301.034 148.887ZM298.802 148.887C298.802 145.407 297.698 142.263 294.89 142.263C292.082 142.263 290.954 145.407 290.954 148.887C290.954 152.151 291.842 155.415 294.89 155.415C297.962 155.415 298.802 152.151 298.802 148.887ZM315.466 148.887C315.466 153.159 313.954 157.287 309.322 157.287C304.786 157.287 303.154 153.375 303.154 148.887C303.154 144.495 304.906 140.391 309.322 140.391C313.642 140.391 315.466 144.303 315.466 148.887ZM313.234 148.887C313.234 145.407 312.13 142.263 309.322 142.263C306.514 142.263 305.386 145.407 305.386 148.887C305.386 152.151 306.274 155.415 309.322 155.415C312.394 155.415 313.234 152.151 313.234 148.887ZM323.453 145.575H325.445V147.735C325.781 146.607 326.957 145.383 328.805 145.383C329.069 145.383 329.261 145.407 329.477 145.455V147.327C329.224 147.28 328.967 147.256 328.709 147.255C326.573 147.255 325.445 148.719 325.445 151.119V156.999H323.453V145.575ZM340.904 151.647H332.36C332.456 154.215 333.8 155.559 335.888 155.559C337.976 155.559 339.008 154.215 339.488 153.327L340.952 154.383C340.256 155.631 338.576 157.287 335.84 157.287C332.6 157.287 330.32 155.127 330.32 151.239C330.32 147.687 332.576 145.311 335.744 145.311C339.152 145.311 340.904 147.783 340.904 151.311V151.647ZM332.384 150.135H338.792C338.768 148.359 337.712 146.847 335.72 146.847C333.68 146.847 332.504 148.191 332.384 150.135ZM350.231 145.575H352.271L347.975 156.999H345.935L341.927 145.575H344.063L345.935 151.383C346.343 152.559 346.607 153.471 347.015 154.599H347.063C347.447 153.495 347.807 152.439 348.215 151.335L350.231 145.575ZM356.085 145.575V156.999H354.093V145.575H356.085ZM356.085 140.679V143.223H354.093V140.679H356.085ZM369.129 151.647H360.585C360.681 154.215 362.025 155.559 364.113 155.559C366.201 155.559 367.233 154.215 367.713 153.327L369.177 154.383C368.481 155.631 366.801 157.287 364.065 157.287C360.825 157.287 358.545 155.127 358.545 151.239C358.545 147.687 360.801 145.311 363.969 145.311C367.377 145.311 369.129 147.783 369.129 151.311V151.647ZM360.609 150.135H367.017C366.993 148.359 365.937 146.847 363.945 146.847C361.905 146.847 360.729 148.191 360.609 150.135ZM379.126 145.575L380.878 151.863C381.166 152.799 381.454 154.023 381.598 154.551H381.622L382.342 151.911L384.046 145.575H386.038L382.582 156.999H380.686L379.054 151.311C378.79 150.375 378.286 148.383 378.214 148.095H378.19C378.118 148.407 377.662 150.279 377.35 151.335L375.646 156.999H373.702L370.246 145.575H372.334L374.134 152.007C374.422 152.943 374.662 154.023 374.806 154.551H374.83C374.974 154.023 375.238 152.919 375.526 151.983L377.326 145.575H379.126ZM396.033 147.063L394.689 148.383C394.017 147.591 393.009 146.967 391.569 146.967C390.321 146.967 389.289 147.519 389.289 148.527C389.289 149.559 390.081 149.871 391.641 150.207L393.081 150.567C394.905 151.023 396.441 151.599 396.441 153.663C396.441 156.015 394.281 157.287 391.809 157.287C389.265 157.287 387.537 156.039 386.817 154.935L388.281 153.759C388.977 154.791 390.153 155.607 391.881 155.607C393.537 155.607 394.425 154.911 394.425 153.855C394.425 152.799 393.561 152.607 392.313 152.319L390.657 151.935C388.641 151.479 387.297 150.687 387.297 148.719C387.297 146.463 389.409 145.311 391.593 145.311C393.777 145.311 395.241 146.175 396.033 147.063Z" fill="var(--fill-0, #7E7E7E)"/>
</g>
</svg>
