<svg preserveAspectRatio="none" width="100%" height="100%" overflow="visible" style="display: block;" viewBox="0 0 69.9664 24.4444" fill="none" xmlns="http://www.w3.org/2000/svg">
<g id="Group">
<path id="Vector" fill-rule="evenodd" clip-rule="evenodd" d="M0 0.236806H4.72114C7.34902 0.236806 8.71943 1.61181 8.71943 3.30764C8.71943 4.47639 8.07187 5.27083 7.16831 5.68333V5.71389C8.32036 6.13403 8.96791 7.05833 8.96791 8.24236C8.96791 9.93055 7.68786 11.4125 4.90939 11.4125H0V0.236806ZM4.57055 4.66736C5.35364 4.66736 5.70754 4.2625 5.70754 3.81181C5.70754 3.36111 5.35364 2.94097 4.57055 2.94097H3.18508V4.65972H4.57055V4.66736ZM4.61573 8.70833C5.444 8.70833 5.84307 8.30347 5.84307 7.78403C5.84307 7.26458 5.42894 6.85972 4.63079 6.85972H3.18508V8.70833H4.61573ZM9.64559 6.86736V0.236806H12.8608V6.8368C12.8608 8.08194 13.4632 8.73889 14.4947 8.73889C15.5263 8.73889 16.1739 8.08194 16.1739 6.82153V0.236806H19.4041V6.86736C19.4041 9.67847 17.5443 11.7028 14.4947 11.7028C11.4452 11.7028 9.64559 9.67847 9.64559 6.86736ZM27.5965 0.779167V3.65139C26.9037 3.15486 25.7216 2.81111 24.7653 2.81111C23.8918 2.81111 23.4551 3.09375 23.4551 3.46806C23.4551 3.84236 23.9446 4.03333 24.8105 4.35417C26.2863 4.88125 28.2892 5.58403 28.2892 7.95972C28.2892 10.0833 26.708 11.6569 23.937 11.6569C22.5064 11.6569 21.1962 11.2368 20.383 10.6868V7.6618C21.1811 8.31875 22.3859 8.84583 23.553 8.84583C24.5394 8.84583 24.9987 8.47153 24.9987 8.05139C24.9987 7.50903 24.2457 7.27222 23.3497 6.94375C22.1675 6.50833 20.3002 5.72917 20.3002 3.55972C20.2926 1.60417 21.8136 0 24.5243 0C25.7216 0 26.7983 0.313194 27.5965 0.779167ZM29.1099 0.236806H32.3251V11.4125H29.1099V0.236806ZM43.7553 11.4201H40.6907L36.7225 5.42361H36.7074V11.4201H33.6579V0.236806H36.7225L40.6907 6.13403H40.7057V0.236806H43.7553V11.4201ZM45.088 0.236806H52.7006V3.13958H48.3032V4.48403H52.2563V7.11944H48.3032V8.50972H52.7006V11.4125H45.088V0.236806ZM60.7649 0.779167V3.65139C60.0722 3.15486 58.89 2.81111 57.9338 2.81111C57.0603 2.81111 56.6236 3.09375 56.6236 3.46806C56.6236 3.84236 57.113 4.03333 57.9789 4.35417C59.4548 4.88125 61.4577 5.58403 61.4577 7.95972C61.4577 10.0833 59.8764 11.6569 57.1055 11.6569C55.6748 11.6569 54.3647 11.2368 53.5515 10.6868V7.6618C54.3496 8.31875 55.5544 8.84583 56.7215 8.84583C57.7079 8.84583 58.1672 8.47153 58.1672 8.05139C58.1672 7.50903 57.4142 7.27222 56.5182 6.94375C55.336 6.50833 53.4686 5.72917 53.4686 3.55972C53.4611 1.60417 54.9821 0 57.6928 0C58.89 0 59.9668 0.313194 60.7649 0.779167ZM69.2735 0.779167V3.65139C68.5808 3.15486 67.3986 2.81111 66.4424 2.81111C65.5689 2.81111 65.1322 3.09375 65.1322 3.46806C65.1322 3.84236 65.6216 4.03333 66.4875 4.35417C67.9634 4.88125 69.9663 5.58403 69.9663 7.95972C69.9663 10.0833 68.385 11.6569 65.6141 11.6569C64.1834 11.6569 62.8733 11.2368 62.0601 10.6868V7.6618C62.8582 8.31875 64.063 8.84583 65.2301 8.84583C66.2165 8.84583 66.6758 8.47153 66.6758 8.05139C66.6758 7.50903 65.9228 7.27222 65.0268 6.94375C63.8446 6.50833 61.9772 5.72917 61.9772 3.55972C61.9697 1.60417 63.4907 0 66.2014 0C67.3986 0 68.4754 0.313194 69.2735 0.779167ZM7.05536 24.2076H10.2706V13.0319H7.05536V24.2076ZM21.7007 13.0319H18.6436V18.9292H18.6286L14.6604 13.0319H11.5958V24.2076H14.6529V18.2111H14.6679L18.6361 24.2076H21.7007V13.0319ZM26.8811 12.7875C24.1704 12.7875 22.6494 14.3917 22.6494 16.3472C22.6494 18.5167 24.5243 19.2958 25.699 19.7312C26.6025 20.0597 27.348 20.2965 27.348 20.8389C27.348 21.259 26.8887 21.6333 25.9023 21.6333C24.7352 21.6333 23.5304 21.1062 22.7323 20.4493V23.4743C23.5455 24.0243 24.8557 24.4444 26.2863 24.4444C29.0572 24.4444 30.6385 22.8708 30.6385 20.7472C30.6385 18.3715 28.6356 17.6611 27.1597 17.1417C26.2863 16.8285 25.8044 16.6451 25.8044 16.2556C25.8044 15.866 26.2487 15.5986 27.1146 15.5986C28.0708 15.5986 29.253 15.9424 29.9458 16.4389V13.5667C29.1476 13.1007 28.0708 12.7875 26.8811 12.7875ZM31.3915 24.2076H34.6067V13.0319H31.3915V24.2076ZM39.1471 21.259H39.7645C41.4286 21.259 42.5053 20.3042 42.5053 18.6236C42.5053 16.9431 41.4286 15.9729 39.7645 15.9729H39.1471V21.259ZM45.7582 18.6236C45.7582 21.9924 43.2508 24.2076 39.6516 24.2076H35.9319V13.0319H39.6516C43.2508 13.0319 45.7582 15.2625 45.7582 18.6236ZM46.6241 24.2076H54.2367V21.3049H49.8393V19.9146H53.7924V17.2792H49.8393V15.9347H54.2367V13.0319H46.6241V24.2076ZM59.2966 18.3104C60.1099 18.3104 60.7424 17.9208 60.7424 17.1417C60.7424 16.3625 60.1099 15.9729 59.2816 15.9729H58.6039V18.3104H59.2966ZM64.5599 24.2076H60.7725L58.6792 20.7549H58.6039V24.2076H55.3887V13.0319H59.3117C62.0676 13.0319 63.9877 14.2771 63.9877 16.9201C63.9877 17.9667 63.5284 19.4944 61.6986 20.2736L64.5599 24.2076Z" fill="var(--fill-0, white)"/>
</g>
</svg>
