<svg preserveAspectRatio="none" width="100%" height="100%" overflow="visible" style="display: block;" viewBox="0 0 14.4553 14.456" fill="none" xmlns="http://www.w3.org/2000/svg">
<g id="Group">
<g id="Vector">
<mask id="path-1-inside-1_0_309" fill="white">
<path d="M12.9512 1.50492C10.9455 -0.501641 7.69293 -0.501641 5.68636 1.50492C5.39688 1.7952 4.79253 2.4741 4.58632 2.80879C6.56592 1.5882 9.19349 1.83089 10.909 3.54718C12.6181 5.25633 12.8664 7.86724 11.6624 9.84446L11.741 9.76594C12.0844 9.55735 12.6522 9.0688 12.9497 8.77138C14.957 6.76403 14.957 3.51149 12.9504 1.50572"/>
</mask>
<path d="M12.9512 1.50492C10.9455 -0.501641 7.69293 -0.501641 5.68636 1.50492C5.39688 1.7952 4.79253 2.4741 4.58632 2.80879C6.56592 1.5882 9.19349 1.83089 10.909 3.54718C12.6181 5.25633 12.8664 7.86724 11.6624 9.84446L11.741 9.76594C12.0844 9.55735 12.6522 9.0688 12.9497 8.77138C14.957 6.76403 14.957 3.51149 12.9504 1.50572" fill="var(--fill-0, #05594F)"/>
<path d="M5.68636 1.50492L5.63028 1.44884L5.6302 1.44892L5.68636 1.50492ZM4.58632 2.80879L4.5188 2.76719L4.62795 2.8763L4.58632 2.80879ZM10.909 3.54718L10.8529 3.60325L10.8529 3.60326L10.909 3.54718ZM11.6624 9.84446L11.5947 9.80321L11.7185 9.90054L11.6624 9.84446ZM11.741 9.76594L11.6998 9.69815L11.6916 9.70311L11.6849 9.70986L11.741 9.76594ZM12.9512 1.50492L13.0073 1.44885C10.9706 -0.588705 7.66781 -0.588689 5.63028 1.44884L5.68636 1.50492L5.74244 1.561C7.71804 -0.414593 10.9204 -0.414577 12.8951 1.56099L12.9512 1.50492ZM5.68636 1.50492L5.6302 1.44892C5.34011 1.73981 4.73014 2.42416 4.5188 2.76719L4.58632 2.80879L4.65384 2.8504C4.85491 2.52404 5.45365 1.85059 5.74252 1.56093L5.68636 1.50492ZM4.58632 2.80879L4.62795 2.8763C6.57711 1.67448 9.16408 1.91366 10.8529 3.60325L10.909 3.54718L10.9651 3.49111C9.2229 1.74812 6.55473 1.50192 4.5447 2.74128L4.58632 2.80879ZM10.909 3.54718L10.8529 3.60326C12.5355 5.28585 12.7801 7.8564 11.5947 9.80321L11.6624 9.84446L11.7302 9.88571C12.9526 7.87807 12.7008 5.2268 10.9651 3.4911L10.909 3.54718ZM11.6624 9.84446L11.7185 9.90054L11.797 9.82202L11.741 9.76594L11.6849 9.70986L11.6064 9.78838L11.6624 9.84446ZM11.741 9.76594L11.7821 9.83373C12.1334 9.6204 12.7064 9.12682 13.0057 8.82746L12.9496 8.77138L12.8936 8.7153C12.5981 9.01077 12.0354 9.49431 11.6998 9.69815L11.741 9.76594ZM12.9496 8.77138L13.0057 8.82746C15.044 6.78915 15.0441 3.48638 13.0065 1.44962L12.9504 1.50572L12.8944 1.56181C14.8699 3.53659 14.87 6.7389 12.8936 8.7153L12.9496 8.77138Z" fill="var(--stroke-0, #05594F)" mask="url(#path-1-inside-1_0_309)"/>
</g>
<path id="Vector_2" d="M3.09473 0.785491C0.997785 4.63569 2.22772 8.25442 4.21484 10.2415C6.37589 12.4033 9.9994 13.3617 13.668 11.3617L12.8047 12.2259C9.88487 15.1463 5.15003 15.1464 2.22949 12.2259C-0.690248 9.30618 -0.690114 4.57055 2.22949 1.65072L3.09473 0.785491Z" fill="var(--fill-0, #05594F)" stroke="var(--stroke-0, #05594F)" stroke-width="0.0793108"/>
</g>
</svg>
