<svg preserveAspectRatio="none" width="100%" height="100%" overflow="visible" style="display: block;" viewBox="0 0 43.8914 57.6923" fill="none" xmlns="http://www.w3.org/2000/svg">
<g id="Group 1244831359">
<path id="Vector" d="M38.7976 53.6582L30.8762 31.9012L30.8138 31.8671L21.9568 35.0935L13.0997 31.8671L13.0373 31.9012L5.11592 53.6582C4.92313 54.1685 5.38243 54.6902 5.91544 54.5767L10.7182 53.5221L10.7692 53.5447L13.7745 57.4402C14.0807 57.8428 14.7101 57.7464 14.8802 57.2701L20.3917 42.2835C20.9304 40.8262 22.9944 40.8262 23.5274 42.2835L29.0333 57.2701C29.2034 57.7464 29.8328 57.8428 30.139 57.4402L33.1443 53.5447L33.1953 53.5221L37.9981 54.5767C38.5311 54.6958 38.9904 54.1742 38.7976 53.6582Z" fill="var(--fill-0, #34DC91)"/>
<g id="Vector_2">
</g>
<path id="Vector_3" d="M32.3508 35.8818L30.8765 31.8275L30.8141 31.7992L21.9571 35.0256L13.1057 31.7992L13.0434 31.8275L11.5691 35.8818L11.1722 36.9592C11.4557 37.3277 11.6882 37.736 11.8696 38.1783L12.7031 40.1912C13.48 42.0511 15.6687 42.8619 17.4605 41.9263L19.3884 40.9114C20.9931 40.0722 22.9211 40.0722 24.5314 40.9114L26.4593 41.9263C28.2455 42.8506 30.4512 42.0511 31.2167 40.1912L32.0503 38.1783C32.2317 37.736 32.4642 37.3277 32.742 36.9592L32.3508 35.8818Z" fill="var(--fill-0, #34DC91)"/>
<path id="Vector_4" d="M15.8671 43.3779C15.3625 43.3779 14.8578 43.2928 14.3702 43.1171C13.2021 42.6975 12.2551 41.7959 11.7788 40.6448L10.9453 38.6262C10.3783 37.2426 9.16483 36.2276 7.70756 35.9044L5.58686 35.4338C4.37341 35.1673 3.32441 34.3961 2.70634 33.3244C2.08828 32.2527 1.94652 30.9599 2.32076 29.7805L2.98419 27.6995C3.43781 26.2762 3.15997 24.7226 2.24705 23.5375L0.914522 21.8137C0.16037 20.8271 -0.151497 19.5626 0.069645 18.3378C0.285117 17.1187 1.01092 16.0413 2.05425 15.3836L3.88577 14.2268C5.13891 13.4273 5.93275 12.0551 6.00079 10.5581L6.09719 8.38639C6.14822 7.15026 6.72092 5.98785 7.67354 5.19401C8.62048 4.40016 9.87362 4.03726 11.0984 4.2017L13.2475 4.49089C14.7217 4.68935 16.2074 4.15067 17.2167 3.05063L18.6853 1.44026C19.5245 0.521669 20.7209 0.0226813 21.9571 0C23.1932 0 24.3783 0.527339 25.2061 1.44593L26.6748 3.05063C27.6841 4.15634 29.164 4.69502 30.644 4.49656L32.7987 4.20737C34.0292 4.04293 35.2766 4.40583 36.2236 5.19968C37.1705 5.99352 37.7432 7.16161 37.7942 8.39773L37.8906 10.5695C37.953 12.0664 38.7412 13.433 40.0057 14.2382L41.8372 15.4006C42.8805 16.0583 43.6063 17.1357 43.8218 18.3548C44.0429 19.5796 43.7311 20.8441 42.9769 21.825L41.6444 23.5545C40.7315 24.7396 40.4536 26.2932 40.9072 27.7165L41.5707 29.7918C41.9449 30.9713 41.8032 32.2641 41.1851 33.3358C40.567 34.4131 39.518 35.1786 38.3046 35.4508L36.1839 35.9214C34.7266 36.2446 33.5132 37.2596 32.9461 38.6432L32.1126 40.6561C31.642 41.7959 30.712 42.6918 29.5496 43.1171C28.3872 43.548 27.083 43.463 25.983 42.8902L24.0494 41.8753C22.7282 41.1835 21.1519 41.1835 19.825 41.8753L17.8971 42.8846C17.262 43.2191 16.5532 43.3892 15.8501 43.3892L15.8671 43.3779ZM10.5087 6.14095C9.94166 6.14095 9.39731 6.33941 8.95503 6.71365C8.42769 7.15594 8.11582 7.77967 8.08747 8.47145L7.99107 10.6432C7.88901 12.7866 6.75494 14.7485 4.95746 15.8996L3.12027 17.062C2.53623 17.4305 2.15065 18.0089 2.0259 18.6894C1.90116 19.3755 2.07127 20.0559 2.49087 20.6059L3.81772 22.3297C5.12756 24.0308 5.52449 26.2649 4.8724 28.3062L4.21464 30.3815C4.00484 31.045 4.08423 31.7367 4.43012 32.3378C4.77601 32.9389 5.34304 33.3528 6.0178 33.5002L8.1385 33.9708C10.2308 34.4358 11.966 35.8931 12.7825 37.872L13.6104 39.885C13.8769 40.5314 14.3872 41.019 15.0449 41.2515C15.6914 41.484 16.3831 41.4386 16.9955 41.1154L18.9234 40.1061C20.823 39.1138 23.0911 39.1138 24.9907 40.1061L26.9186 41.1211C27.531 41.4386 28.2341 41.484 28.8862 41.2459C29.5326 41.0077 30.0373 40.5257 30.2981 39.8907L31.1316 37.8777C31.9481 35.8988 33.6833 34.4415 35.7756 33.9765L37.8963 33.5059C38.5711 33.3585 39.1381 32.9389 39.484 32.3378C39.8299 31.7367 39.9093 31.045 39.6995 30.3872L39.036 28.3119C38.384 26.2706 38.7809 24.0365 40.0907 22.3354L41.4232 20.6116C41.8428 20.0616 42.0073 19.3811 41.8882 18.7007C41.7691 18.0203 41.3779 17.4419 40.7938 17.0733L38.9623 15.9109C37.1478 14.7598 36.0138 12.7922 35.923 10.6545L35.8266 8.48279C35.7983 7.79101 35.4921 7.16728 34.9591 6.71932C34.4317 6.27704 33.757 6.07858 33.0709 6.17497L30.9218 6.46416C28.8068 6.75334 26.6691 5.97651 25.2232 4.39449L23.7545 2.78979C23.2896 2.27947 22.6545 1.99595 21.9684 1.99595C21.2766 1.99595 20.6359 2.27947 20.1709 2.78979L18.7023 4.40016C17.2564 5.98785 15.1243 6.75901 13.0036 6.46983L10.8546 6.18064C10.7412 6.16363 10.6334 6.15796 10.5257 6.15796L10.5087 6.14095Z" fill="var(--fill-0, #05594F)"/>
<g id="Group">
<g id="Vector_5">
</g>
<path id="Vector_6" d="M21.9628 35.9157C14.4043 35.9157 8.25769 29.7691 8.25769 22.2105C8.25769 14.652 14.4043 8.5054 21.9628 8.5054C29.5214 8.5054 35.668 14.652 35.668 22.2105C35.668 29.7691 29.5214 35.9157 21.9628 35.9157ZM21.9628 10.4843C15.4987 10.4843 10.2423 15.7407 10.2423 22.2049C10.2423 28.669 15.4987 33.9254 21.9628 33.9254C28.427 33.9254 33.6834 28.669 33.6834 22.2049C33.6834 15.7407 28.427 10.4843 21.9628 10.4843Z" fill="var(--fill-0, #05594F)"/>
</g>
<path id="Vector_7" d="M25.909 29.1284C25.7219 29.1284 25.5291 29.0944 25.3477 29.0206L21.9398 27.6995L18.532 29.0263C18.0386 29.2078 17.5113 29.134 17.103 28.8335C16.7004 28.533 16.4736 28.0567 16.502 27.552L16.7061 23.9003L14.3926 21.0652C14.0751 20.6909 13.9674 20.1693 14.1205 19.6816C14.2736 19.194 14.6591 18.8197 15.1581 18.6837L18.7021 17.7537L20.6867 14.6747C20.7604 14.5613 20.8568 14.4649 20.9645 14.3912C21.231 14.1474 21.5769 14.0056 21.9512 14C22.4615 14 22.9435 14.2495 23.227 14.6804L25.2173 17.7651L28.7555 18.695C29.2602 18.8311 29.6458 19.2053 29.7989 19.6986C29.952 20.1863 29.8442 20.708 29.5154 21.0935L27.2019 23.923L27.406 27.5634C27.4344 28.0737 27.2075 28.5557 26.7879 28.8562C26.5328 29.0433 26.2266 29.134 25.9204 29.134L25.909 29.1284ZM26.0678 27.1664H26.0791C26.0791 27.1664 26.0735 27.1664 26.0678 27.1664ZM21.9455 25.6808C22.1213 25.6808 22.2914 25.7092 22.4558 25.7715L25.3647 26.8999L25.1946 23.821C25.1946 23.4297 25.3137 23.0838 25.5178 22.8173L27.4854 20.4131L24.5028 19.6306C24.1229 19.5285 23.811 19.2961 23.6182 18.9728L21.9398 16.3702L20.2557 18.9842C20.08 19.279 19.7681 19.5172 19.3938 19.6193L16.4056 20.4074L18.3619 22.806C18.583 23.0895 18.6907 23.4184 18.6907 23.7756L18.5206 26.9056L21.3955 25.7886C21.5769 25.7205 21.7584 25.6922 21.9398 25.6922L21.9455 25.6808ZM27.9787 19.812C27.9787 19.812 27.973 19.8177 27.9674 19.8234L27.9787 19.812ZM15.9123 19.7894L15.9236 19.8007C15.9236 19.8007 15.9179 19.7894 15.9123 19.7894ZM18.5943 17.9012C18.5943 17.9012 18.583 17.9238 18.5773 17.9295L18.5943 17.9012ZM25.2966 17.8955L25.308 17.9125C25.308 17.9125 25.3023 17.9012 25.2966 17.8955Z" fill="var(--fill-0, #05594F)"/>
<path id="Vector_8" d="M32.3445 35.9498C31.8342 36.5055 31.4202 37.1519 31.1254 37.8664L30.2918 39.8793C30.031 40.5201 29.532 41.0021 28.8799 41.2402C28.2278 41.4784 27.5247 41.433 26.9123 41.1155L24.9844 40.1061C24.1906 39.6922 23.3344 39.4484 22.4611 39.386L23.2493 41.5351C23.5272 41.6145 23.805 41.7279 24.0658 41.8639L25.9937 42.8789C27.0995 43.446 28.398 43.531 29.566 43.1001C30.7285 42.6748 31.6584 41.7789 32.129 40.6392L32.9626 38.6262C33.0249 38.4788 33.0873 38.337 33.1667 38.2009L32.3445 35.9498ZM16.995 41.1155C16.3826 41.433 15.6908 41.484 15.0444 41.2516C14.3923 41.0134 13.882 40.5257 13.6098 39.8793L12.7819 37.8664C12.4871 37.1519 12.0675 36.5055 11.5628 35.9498L10.7406 38.2009C10.82 38.337 10.8824 38.4788 10.9447 38.6262L11.7783 40.6392C12.2602 41.7902 13.2015 42.6918 14.3696 43.1171C14.8572 43.2929 15.3619 43.3779 15.8666 43.3779C16.5754 43.3779 17.2785 43.2078 17.9135 42.8733L19.8415 41.8639C20.108 41.7279 20.3801 41.6144 20.6636 41.5294L21.4575 39.386C20.5899 39.4484 19.7224 39.6922 18.9229 40.1061L16.995 41.1155Z" fill="var(--fill-0, #05594F)"/>
<path id="Vector_9" d="M32.7421 36.9591L32.3508 35.8818C31.8462 36.4375 31.4266 37.0839 31.1317 37.7983L30.2982 39.8113C30.0373 40.4464 29.5384 40.9283 28.8863 41.1665C28.2342 41.4103 27.5311 41.365 26.9187 41.0474L24.9908 40.0324C23.0912 39.0401 20.8288 39.0401 18.9292 40.0324L17.0013 41.0474C16.3889 41.365 15.6971 41.4103 15.0507 41.1778C14.3986 40.9397 13.8883 40.452 13.6161 39.8113L12.7883 37.7983C12.4934 37.0839 12.0795 36.4375 11.5691 35.8818L11.1722 36.9591L10.7469 38.1272C10.8263 38.2633 10.8887 38.4051 10.9511 38.5525L11.7846 40.5711C12.2666 41.7222 13.2079 42.6238 14.3759 43.0434C14.8636 43.2192 15.3682 43.3042 15.8729 43.3042C16.5817 43.3042 17.2848 43.1341 17.9199 42.8052L19.8478 41.7902C20.2447 41.5861 20.6586 41.4387 21.0896 41.3536C21.6623 41.2459 22.2577 41.2459 22.836 41.3536C23.267 41.4387 23.6809 41.5861 24.0722 41.7902L26.0001 42.8052C27.1058 43.3779 28.4043 43.4573 29.5724 43.032C30.7348 42.6068 31.6647 41.7052 32.1354 40.5654L32.9689 38.5525C33.0256 38.4107 33.0936 38.269 33.173 38.1329L32.7421 36.9591Z" fill="var(--fill-0, #003E37)"/>
</g>
</svg>
