<svg preserveAspectRatio="none" width="100%" height="100%" overflow="visible" style="display: block;" viewBox="0 0 9.33333 12.25" fill="none" xmlns="http://www.w3.org/2000/svg">
<path id="Vector" d="M3.31333 6.81917L4.66667 5.7925L6.01417 6.81917L5.50083 5.15667L6.85417 4.08333H5.1975L4.66667 2.44417L4.13583 4.08333H2.47917L3.82667 5.15667L3.31333 6.81917ZM9.33333 4.66667C9.33333 2.08833 7.245 0 4.66667 0C2.08833 0 0 2.08833 0 4.66667C0 5.85083 0.443333 6.92417 1.16667 7.74667V12.25L4.66667 11.0833L8.16667 12.25V7.74667C8.89 6.92417 9.33333 5.85083 9.33333 4.66667ZM4.66667 1.16667C6.5975 1.16667 8.16667 2.73583 8.16667 4.66667C8.16667 6.5975 6.5975 8.16667 4.66667 8.16667C2.73583 8.16667 1.16667 6.5975 1.16667 4.66667C1.16667 2.73583 2.73583 1.16667 4.66667 1.16667ZM4.66667 9.91667L2.33333 10.5117V8.70333C3.02167 9.1 3.815 9.33333 4.66667 9.33333C5.51833 9.33333 6.31167 9.1 7 8.70333V10.5117L4.66667 9.91667Z" fill="var(--fill-0, white)"/>
</svg>
