<svg preserveAspectRatio="none" width="100%" height="100%" overflow="visible" style="display: block;" viewBox="0 0 16.3333 21.4375" fill="none" xmlns="http://www.w3.org/2000/svg">
<path id="Vector" d="M5.79833 11.9335L8.16667 10.1369L10.5248 11.9335L9.62646 9.02417L11.9948 7.14583H9.09563L8.16667 4.27729L7.23771 7.14583H4.33854L6.69667 9.02417L5.79833 11.9335ZM16.3333 8.16667C16.3333 3.65458 12.6788 0 8.16667 0C3.65458 0 0 3.65458 0 8.16667C0 10.239 0.775833 12.1173 2.04167 13.5567V21.4375L8.16667 19.3958L14.2917 21.4375V13.5567C15.5575 12.1173 16.3333 10.239 16.3333 8.16667ZM8.16667 2.04167C11.5456 2.04167 14.2917 4.78771 14.2917 8.16667C14.2917 11.5456 11.5456 14.2917 8.16667 14.2917C4.78771 14.2917 2.04167 11.5456 2.04167 8.16667C2.04167 4.78771 4.78771 2.04167 8.16667 2.04167ZM8.16667 17.3542L4.08333 18.3954V15.2308C5.28792 15.925 6.67625 16.3333 8.16667 16.3333C9.65708 16.3333 11.0454 15.925 12.25 15.2308V18.3954L8.16667 17.3542Z" fill="var(--fill-0, white)"/>
</svg>
