<svg preserveAspectRatio="none" width="100%" height="100%" overflow="visible" style="display: block;" viewBox="0 0 12.191 14.8708" fill="none" xmlns="http://www.w3.org/2000/svg">
<path id="Vector" d="M6.37518 14.5932C9.73955 14.5932 11.9135 12.9261 11.9135 10.3461C11.9135 7.92712 10.213 7.05232 7.46967 6.42576L5.78907 6.05697C4.27582 5.72228 3.45575 5.33365 3.45575 4.23758C3.45575 3.1415 4.4971 2.39757 6.10949 2.39757C7.61402 2.39757 8.93771 2.95592 9.75303 3.93302L11.4987 2.53002C10.5382 1.49104 8.84254 0.277588 6.17056 0.277588C3.15199 0.277588 0.96063 1.99467 0.96063 4.36051C0.96063 7.06025 3.17103 7.88508 5.09669 8.30147L6.96208 8.7115C8.43647 9.03192 9.41913 9.4713 9.41913 10.5713C9.41913 11.7547 8.35478 12.432 6.49891 12.432C4.4749 12.432 2.94499 11.4382 2.30416 10.4357L0.388797 11.8149C1.37463 13.1672 3.45258 14.5932 6.37518 14.5932Z" fill="var(--fill-0, #05594F)" stroke="var(--stroke-0, #05594F)" stroke-width="0.555176" stroke-miterlimit="10"/>
</svg>
