<svg preserveAspectRatio="none" width="100%" height="100%" overflow="visible" style="display: block;" viewBox="0 0 32 55.9341" fill="none" xmlns="http://www.w3.org/2000/svg">
<path id="Vector" opacity="0.4" d="M18.7044 55.9224C17.4414 55.8492 16.5432 55.6958 15.7964 55.4274C15.4763 55.3159 15.4866 55.3228 15.4866 55.1799C15.4866 55.0544 15.5141 55.0196 15.9099 54.6396C17.1351 53.4614 18.9659 52.4889 20.8553 52.0078C21.1478 51.9346 21.4507 51.8614 21.5264 51.851C21.6021 51.837 21.7432 51.8126 21.8361 51.7917C21.9325 51.7743 22.3007 51.7325 22.6586 51.7011L23.3125 51.6418L22.9856 51.5129C22.4659 51.3072 22.0048 51.112 21.5264 50.8854C20.8588 50.5717 20.8966 50.5856 20.8278 50.6693C20.6454 50.8959 19.9984 51.3351 19.4994 51.5721C18.2811 52.1577 16.9768 52.3878 15.1769 52.346C14.2511 52.3216 13.5387 52.2344 12.6921 52.0427C11.6012 51.7952 10.3829 51.3177 9.68774 50.861C9.61203 50.8122 9.51911 50.753 9.48125 50.732C9.43651 50.7076 9.40898 50.6484 9.4021 50.5717C9.39177 50.4567 9.40554 50.4392 9.57417 50.3277C10.0044 50.0384 10.7787 49.634 11.1882 49.4807C12.3446 49.0449 13.26 48.8184 14.3853 48.6929C14.9325 48.6301 15.1597 48.6232 16.0028 48.6406C16.5879 48.651 17.1213 48.6789 17.3278 48.7068C17.5171 48.7382 17.6754 48.7556 17.6788 48.7556C17.6823 48.7521 17.4896 48.6162 17.2487 48.4523C16.815 48.1595 15.8893 47.4694 15.7275 47.3195L15.6415 47.2393L15.4694 47.3439C14.9291 47.668 14.3406 47.8807 13.525 48.041C13.1671 48.1142 13.0294 48.1212 12.0451 48.1212C10.7615 48.1212 10.3519 48.0689 9.18873 47.7657C7.70889 47.3822 6.16367 46.6188 5.08305 45.7439C4.60813 45.3605 4.54274 45.2873 4.54274 45.1304C4.54274 45.0049 4.54962 44.9945 4.72514 44.9178C5.21039 44.7017 6.02602 44.4681 6.74528 44.3426C8.03239 44.1195 9.80131 44.1335 11.0471 44.374C11.787 44.5204 12.5338 44.733 12.9916 44.9317C13.1602 45.0049 13.1774 45.0014 13.081 44.9073C12.9262 44.7539 12.169 43.8964 11.8593 43.5235C11.5771 43.1818 11.5083 43.1156 11.4463 43.133C10.5171 43.3945 9.32639 43.3805 8.15629 43.0982C7.64351 42.9727 6.74528 42.6311 6.20153 42.3557C5.4857 41.9897 4.58748 41.3936 3.97146 40.8708C3.66517 40.6128 2.85986 39.7902 2.64305 39.5113C2.25416 39.0198 2.03047 38.6538 2.03047 38.5144C2.03047 38.3959 2.04079 38.3854 2.14404 38.3645C2.97343 38.2181 4.36378 38.2669 5.4272 38.483C5.82641 38.5632 6.64204 38.7758 6.81411 38.8455C6.8795 38.8734 7.12729 38.9675 7.36475 39.0617C7.94636 39.2882 8.78952 39.717 9.19905 39.9924C9.38145 40.1178 9.53287 40.2154 9.53287 40.212C9.53287 40.205 9.45028 40.0621 9.35392 39.8913C9.09925 39.4556 9.09581 39.4486 8.73101 38.727L8.40407 38.0822L7.82246 38.0612C7.203 38.0403 6.8795 37.9811 6.28068 37.7789C5.90901 37.6569 5.39278 37.4303 5.11747 37.2735C5.0039 37.2107 4.91098 37.1584 4.9041 37.1584C4.82494 37.1584 3.77185 36.409 3.42426 36.1057C2.38838 35.1994 1.50392 34.1153 0.905107 33.0278C0.650438 32.5607 0.536869 32.3062 0.289084 31.6404C0.261552 31.5707 0.240903 31.4487 0.240903 31.372C0.240903 31.2361 0.244344 31.2326 0.361354 31.2326C0.757124 31.2326 1.73794 31.4243 2.30579 31.616C3.97834 32.1772 5.53733 33.1393 6.71775 34.3454C6.92424 34.5545 7.08255 34.7009 7.07222 34.6765C6.87262 34.07 6.556 32.8639 6.43211 32.226C6.41146 32.111 6.38737 31.9995 6.38049 31.9785C6.37705 31.9576 6.28413 31.9263 6.174 31.9123C5.8918 31.8775 5.20006 31.6369 4.83527 31.4452C3.91984 30.9677 3.04914 30.2078 2.28514 29.2248C1.46262 28.1721 0.853485 27.0253 0.437067 25.7599C0.199605 25.0418 0 24.0101 0 23.5151C0 23.3547 4.95966e-08 23.3547 0.11701 23.3547C0.35103 23.3547 1.3525 23.8044 1.91002 24.1599C2.68435 24.648 3.27628 25.1325 3.97834 25.8436C4.79053 26.6697 5.2861 27.3355 5.81609 28.322L5.8918 28.4614L5.87115 28.322C5.83673 28.078 5.78167 26.7394 5.78167 26.1085V25.4985L5.54077 25.4009C5.21727 25.2684 4.64943 24.9164 4.33625 24.6584C3.84068 24.2506 3.3692 23.7068 2.88395 22.9887C2.20598 21.9848 1.6347 20.5696 1.34562 19.1718C1.16666 18.3108 1.12536 17.8577 1.14257 16.8537C1.15289 16.3553 1.1701 15.9196 1.18387 15.8882C1.22172 15.801 1.411 15.808 1.56931 15.8986C2.03047 16.1601 2.67746 16.6864 3.22466 17.2476C4.54274 18.5966 5.57862 20.3848 5.99504 22.0301L6.0329 22.187L6.06387 22.0476C6.07764 21.9709 6.12238 21.7269 6.15679 21.5073C6.2738 20.8136 6.32542 20.5278 6.44932 19.9735L6.56977 19.4332L6.49406 19.3705C5.88492 18.8825 5.63713 18.621 5.27233 18.0807C4.3569 16.7352 3.83724 14.6577 3.90263 12.6185C3.91295 12.263 3.94048 11.8238 3.95769 11.6425C4.01964 11.0569 4.19859 10.2482 4.36034 9.81247C4.41885 9.65561 4.43606 9.63818 4.5393 9.62773C4.64254 9.61727 4.6804 9.64167 4.8628 9.81944C5.23448 10.1855 5.84018 10.9976 6.11893 11.5031C6.71087 12.5837 7.1204 13.6712 7.32689 14.7274C7.39572 15.0725 7.49552 15.8394 7.50929 16.1392L7.51961 16.296L7.60221 16.0694C7.67792 15.8498 7.78805 15.5814 7.91882 15.2782C7.95668 15.1945 7.98421 15.1213 7.98421 15.1109C7.98421 15.0899 8.13564 14.7553 8.35933 14.2778L8.49011 13.9989L8.34557 13.8211C7.73298 13.0577 7.29592 11.8621 7.19267 10.6665C7.14793 10.1576 7.14793 9.09789 7.19267 8.56805C7.31657 7.06916 7.8259 5.44827 8.54173 4.29797C8.71725 4.0191 8.72757 4.00865 8.85146 4.00865C9.00289 4.00865 9.04763 4.06791 9.34359 4.66049C10.0319 6.02343 10.407 7.89529 10.3416 9.62075C10.3313 9.93796 10.3072 10.29 10.29 10.4051C10.2728 10.5201 10.2487 10.6839 10.2384 10.7676L10.2177 10.921L10.3795 10.6804C10.6927 10.2168 11.0953 9.66955 11.467 9.19549C11.8283 8.73537 11.8387 8.71445 11.7905 8.63776C11.6976 8.49136 11.5083 7.96849 11.4326 7.65129C11.2949 7.08311 11.2536 6.22212 11.3224 5.45176C11.4807 3.66704 12.3962 1.56163 13.5181 0.407836C13.7246 0.195204 13.759 0.170803 13.8691 0.18126C13.9827 0.191718 13.993 0.202175 14.0687 0.418294C14.523 1.70803 14.5953 3.74024 14.2442 5.29839C14.1892 5.54588 13.9517 6.33018 13.8795 6.51841C13.8691 6.5463 13.9586 6.47658 14.0791 6.36155C14.1995 6.24652 14.4266 6.04434 14.5815 5.91188C14.8086 5.71668 14.8672 5.64696 14.8844 5.54588C14.9773 5.02998 15.3937 4.20385 15.8962 3.53807C16.1508 3.19646 16.7841 2.56205 17.2074 2.21696C17.5721 1.92067 18.0815 1.54769 18.2054 1.48843C18.2604 1.46054 18.288 1.44311 18.6011 1.24791C18.8593 1.09105 19.5269 0.766872 19.9605 0.592583C20.8278 0.244005 21.8878 0 22.5451 0H22.7825V0.135945C22.7825 0.362521 22.4281 1.17819 22.0805 1.74289C21.64 2.46096 21.2476 2.95246 20.549 3.66007C19.0244 5.20427 17.1592 6.15937 15.6621 6.16983C15.4935 6.16983 15.4625 6.18377 15.318 6.31623C15.0702 6.54281 14.3853 7.21208 14.3853 7.22951C14.3853 7.23648 14.523 7.19117 14.6951 7.12842C15.965 6.64738 17.7924 6.47309 19.1931 6.69618C19.5407 6.75196 20.2049 6.9123 20.4251 6.99596C20.5834 7.05522 20.5972 7.06916 20.6075 7.18419C20.6179 7.29922 20.5972 7.32711 20.3666 7.5502C19.2447 8.62731 17.6685 9.40115 15.934 9.72533C15.435 9.81944 14.2787 9.85779 13.8244 9.79853C13.4527 9.74624 12.9503 9.62075 12.6681 9.50572L12.4547 9.41858L12.2998 9.61378C12.1622 9.79156 11.67 10.4783 11.522 10.7013C11.2054 11.1684 11.023 11.4508 11.0299 11.4612C11.0334 11.4647 11.1813 11.402 11.3603 11.3148C11.8765 11.0708 12.5407 10.8791 13.3357 10.7467C13.876 10.656 15.4935 10.656 16.0889 10.7467C16.7806 10.8512 17.5515 11.0674 18.078 11.3044C18.2639 11.3915 18.2742 11.402 18.2742 11.524C18.2742 11.6704 18.2604 11.6843 17.8096 12.0225C16.729 12.8346 15.1115 13.4481 13.6661 13.5945C13.2221 13.6399 12.2654 13.6399 11.8559 13.5945C11.319 13.5388 10.6823 13.3575 10.2762 13.1518C10.1833 13.103 10.0973 13.0786 10.0835 13.0961C10.025 13.1588 9.47781 14.2743 9.25067 14.7971C8.94782 15.4908 8.53485 16.5365 8.5555 16.554C8.56238 16.5644 8.63465 16.5087 8.71724 16.432C9.78754 15.4037 11.553 14.6368 13.4389 14.3754C13.9311 14.3091 15.5314 14.3196 15.8927 14.3963L16.1061 14.4381V14.588C16.1061 14.717 16.0786 14.7762 15.9065 15.0133C14.7674 16.554 12.613 17.9099 10.6376 18.3247C10.0491 18.4468 8.996 18.4781 8.50043 18.3875C8.32148 18.3526 8.1322 18.3178 8.08401 18.3108C7.97389 18.2899 7.97733 18.2864 7.79837 19.0149C7.55059 20.0084 7.31313 21.2458 7.2443 21.8733C7.23053 21.9883 7.21332 22.1208 7.203 22.1696L7.18579 22.2567L7.24774 22.1696C7.76052 21.4445 8.60712 20.6393 9.3608 20.1513C9.52255 20.0467 9.69462 19.9352 9.7428 19.9003C9.9252 19.7748 10.6961 19.3844 11.0643 19.2311C11.6459 18.9905 11.9006 18.9104 12.8677 18.6838C12.9503 18.6629 13.2187 18.635 13.463 18.6245L13.9035 18.6036V18.743C13.9035 18.9278 13.8416 19.0951 13.6007 19.5866C13.0397 20.716 12.1725 21.7826 11.1159 22.6367C9.82196 23.6859 8.46602 24.261 7.29248 24.261H7.02404L6.99995 24.4597C6.95521 24.8397 7.01028 27.0218 7.08599 27.8514C7.12729 28.2836 7.17202 28.6705 7.18579 28.7159C7.20644 28.7821 7.23053 28.7403 7.32001 28.4684C7.42325 28.1581 7.69513 27.5551 7.90506 27.1717C8.23544 26.5721 8.95126 25.6553 9.5432 25.0767C10.5309 24.1077 11.5633 23.4035 12.5958 22.9922C12.6818 22.9573 12.8023 22.9085 12.8642 22.8807C13.0225 22.8109 13.2462 22.8179 13.2738 22.8911C13.3082 22.9818 13.1843 23.8567 13.0776 24.2959C12.9606 24.7595 12.9193 24.9024 12.7713 25.3068C12.4719 26.119 12.0658 26.8998 11.5358 27.6876C11.0953 28.3464 10.3657 29.1551 9.82196 29.5978C9.52255 29.8383 9.06483 30.1415 8.75166 30.3019C8.40407 30.4797 7.69857 30.7446 7.56779 30.7446C7.51617 30.7446 7.51961 30.7794 7.59188 31.121C7.68825 31.5637 7.88785 32.3515 8.0083 32.7663C8.05648 32.9302 8.11499 33.1323 8.13908 33.2195C8.20447 33.453 8.30771 33.7598 8.54517 34.4221L8.75854 35.0147L8.81361 34.5894C9.08204 32.606 10.1833 30.5041 11.8111 28.8727C12.4306 28.2523 12.7747 27.9699 13.3804 27.59C13.6041 27.4505 13.7211 27.3982 13.8106 27.3982H13.9311L13.9552 27.6248C14.0033 28.057 13.9517 29.542 13.8726 30.0126C13.7211 30.9468 13.5043 31.7241 13.1636 32.5746C13.0088 32.9581 12.6164 33.7702 12.5063 33.9376C12.4616 34.0038 12.4237 34.0665 12.4237 34.077C12.4237 34.0874 12.3273 34.2408 12.2138 34.4151C11.5117 35.4783 10.6686 36.287 9.81508 36.7227C9.67742 36.7924 9.56729 36.8552 9.56729 36.8656C9.56729 36.9005 9.9665 37.6848 10.1523 38.0124C10.259 38.2042 10.3554 38.3784 10.3623 38.3959C10.438 38.5911 11.6631 40.5117 11.7423 40.5605C11.7698 40.578 11.7733 40.5536 11.7595 40.4769C11.7492 40.4176 11.7285 40.1074 11.7148 39.7832C11.67 38.5806 11.8696 37.2804 12.3067 35.9733C12.847 34.3593 13.6833 32.9197 14.7295 31.8112C15.0323 31.494 15.0599 31.4731 15.1734 31.4836C15.2905 31.494 15.3008 31.5045 15.3765 31.7206C15.7 32.6374 15.8652 33.7981 15.8652 35.1367C15.8652 37.995 15.0117 40.4908 13.5181 42.0106C13.1602 42.3766 13.1533 42.3871 13.2152 42.4568C13.6971 43.0215 14.6744 44.0359 15.2113 44.5343C15.3903 44.6982 15.7619 45.0258 16.0373 45.2559C16.3126 45.4894 16.5431 45.6881 16.5535 45.6986C16.5638 45.709 16.7634 45.8659 16.9974 46.0437L17.4207 46.3713L17.2865 46.1134C17.0284 45.6289 16.76 44.869 16.5913 44.1509C16.3539 43.1574 16.2782 42.4986 16.2541 41.2891C16.23 40.0412 16.3091 39.2603 16.5776 37.995C16.7428 37.2107 17.1179 36.1231 17.4035 35.5898C17.4964 35.419 17.5205 35.3981 17.6307 35.3876C17.7442 35.3772 17.7649 35.3911 17.9369 35.6142C20.1326 38.4307 21.0102 43.3631 19.8676 46.462C19.7403 46.8071 19.5338 47.2532 19.3892 47.4833C19.3445 47.5565 19.3067 47.6227 19.3067 47.6297C19.3067 47.6436 19.7024 47.8911 20.0122 48.0689C20.7865 48.5186 21.7535 49.017 22.4212 49.3168C22.5933 49.3935 22.7997 49.4876 22.8858 49.526C22.9718 49.5678 23.1817 49.6549 23.3504 49.7247C23.5225 49.7944 23.6842 49.8606 23.7083 49.8745C23.7358 49.885 23.6326 49.7421 23.4777 49.5573C23.3228 49.3726 23.1542 49.1565 23.1026 49.0763C22.7137 48.4872 22.7378 48.5255 22.4384 47.9295C21.7398 46.5282 21.3337 44.8759 21.2304 43.032C21.1547 41.6446 21.3096 40.1283 21.6228 39.1418C21.7054 38.8874 21.7088 38.8839 21.8327 38.8734C21.9566 38.863 21.9807 38.8804 22.4694 39.3789C23.6498 40.5849 24.548 42.0873 25.2191 43.9905C25.6149 45.1165 25.8454 46.4411 25.8454 47.6158C25.8454 48.5848 25.7181 49.3761 25.4462 50.1116C25.3808 50.2963 25.3292 50.4497 25.3361 50.4567C25.3808 50.502 26.6404 50.861 27.5146 51.0806C28.6675 51.3699 30.5809 51.6837 31.603 51.7499C31.8818 51.7673 31.9816 51.7882 31.9954 51.8231C32.0057 51.851 31.9988 52.1054 31.9747 52.3843C31.9541 52.6667 31.9265 53.0362 31.9162 53.207L31.8921 53.5172L31.4757 53.4963C30.3538 53.4405 28.4472 53.1372 26.9089 52.7643C26.7196 52.7155 26.7161 52.7189 26.6645 52.8061C26.5647 52.9873 26.1827 53.437 25.9556 53.6496C24.8199 54.7058 23.2609 55.4135 21.3199 55.7516C20.5249 55.891 19.3858 55.9642 18.7044 55.9224Z" fill="var(--fill-0, #E3F8F6)"/>
</svg>
