<svg preserveAspectRatio="none" width="100%" height="100%" overflow="visible" style="display: block;" viewBox="0 0 32 55.1914" fill="none" xmlns="http://www.w3.org/2000/svg">
<path id="Vector" opacity="0.4" d="M18.7044 55.1798C17.4414 55.1076 16.5432 54.9563 15.7964 54.6914C15.4763 54.5814 15.4866 54.5882 15.4866 54.4472C15.4866 54.3234 15.5142 54.289 15.9099 53.9141C17.1351 52.7516 18.9659 51.7919 20.8553 51.3173C21.1478 51.2451 21.4507 51.1728 21.5264 51.1625C21.6021 51.1487 21.7432 51.1247 21.8361 51.104C21.9325 51.0868 22.3007 51.0456 22.6586 51.0146L23.3125 50.9561L22.9856 50.8289C22.4659 50.6259 22.0048 50.4333 21.5264 50.2098C20.8588 49.9002 20.8966 49.914 20.8278 49.9965C20.6454 50.2201 19.9984 50.6535 19.4994 50.8873C18.2811 51.4652 16.9768 51.6922 15.1769 51.6509C14.2511 51.6268 13.5387 51.5408 12.6921 51.3517C11.6012 51.1075 10.3829 50.6363 9.68774 50.1857C9.61203 50.1375 9.51911 50.0791 9.48125 50.0584C9.43651 50.0344 9.40898 49.9759 9.4021 49.9002C9.39177 49.7867 9.40554 49.7695 9.57417 49.6594C10.0044 49.374 10.7787 48.975 11.1882 48.8236C12.3446 48.3937 13.26 48.1701 14.3853 48.0463C14.9325 47.9844 15.1597 47.9775 16.0028 47.9947C16.5879 48.005 17.1213 48.0326 17.3278 48.0601C17.5171 48.091 17.6754 48.1082 17.6788 48.1082C17.6823 48.1048 17.4896 47.9707 17.2487 47.809C16.815 47.5201 15.8893 46.8391 15.7275 46.6912L15.6415 46.612L15.4694 46.7152C14.9291 47.0351 14.3406 47.2449 13.525 47.4031C13.1671 47.4754 13.0294 47.4822 12.0451 47.4822C10.7615 47.4822 10.3519 47.4307 9.18873 47.1314C7.70889 46.7531 6.16367 45.9998 5.08305 45.1365C4.60813 44.7582 4.54274 44.6859 4.54274 44.5312C4.54274 44.4073 4.54962 44.397 4.72514 44.3213C5.21039 44.1081 6.02602 43.8777 6.74528 43.7538C8.03239 43.5337 9.80131 43.5475 11.0471 43.7848C11.787 43.9292 12.5338 44.1391 12.9916 44.3351C13.1602 44.4073 13.1774 44.4039 13.081 44.311C12.9262 44.1597 12.169 43.3136 11.8593 42.9455C11.5771 42.6085 11.5083 42.5431 11.4463 42.5603C10.5171 42.8183 9.32639 42.8045 8.15629 42.5259C7.64351 42.4021 6.74528 42.065 6.20153 41.7933C5.4857 41.4322 4.58748 40.844 3.97146 40.3281C3.66517 40.0736 2.85986 39.2618 2.64305 38.9867C2.25416 38.5017 2.03047 38.1406 2.03047 38.003C2.03047 37.8861 2.04079 37.8757 2.14404 37.8551C2.97343 37.7106 4.36378 37.7588 5.4272 37.972C5.82641 38.0511 6.64204 38.261 6.81411 38.3297C6.8795 38.3573 7.12729 38.4501 7.36475 38.543C7.94636 38.7666 8.78952 39.1896 9.19905 39.4613C9.38145 39.5852 9.53287 39.6815 9.53287 39.678C9.53287 39.6711 9.45028 39.5301 9.35392 39.3616C9.09925 38.9317 9.09581 38.9248 8.73101 38.2128L8.40407 37.5765L7.82246 37.5559C7.203 37.5352 6.8795 37.4768 6.28068 37.2773C5.90901 37.1569 5.39278 36.9333 5.11747 36.7785C5.0039 36.7166 4.91098 36.665 4.9041 36.665C4.82494 36.665 3.77185 35.9255 3.42426 35.6263C2.38838 34.732 1.50392 33.6623 0.905107 32.5892C0.650438 32.1283 0.53687 31.8772 0.289084 31.2203C0.261552 31.1515 0.240903 31.0311 0.240903 30.9555C0.240903 30.8213 0.244344 30.8179 0.361354 30.8179C0.757124 30.8179 1.73794 31.0071 2.30579 31.1962C3.97834 31.75 5.53733 32.6993 6.71775 33.8894C6.92424 34.0957 7.08255 34.2402 7.07222 34.2161C6.87262 33.6176 6.556 32.4276 6.43211 31.7981C6.41146 31.6846 6.38737 31.5746 6.38049 31.5539C6.37705 31.5333 6.28413 31.5023 6.174 31.4886C5.8918 31.4542 5.20006 31.2169 4.83527 31.0277C3.91984 30.5565 3.04914 29.8067 2.28514 28.8367C1.46262 27.798 0.853485 26.6664 0.437067 25.4179C0.199605 24.7093 0 23.6912 0 23.2028C0 23.0446 4.92306e-08 23.0446 0.11701 23.0446C0.35103 23.0446 1.3525 23.4883 1.91002 23.8391C2.68435 24.3207 3.27628 24.7988 3.97834 25.5004C4.79053 26.3156 5.2861 26.9725 5.81609 27.9459L5.8918 28.0835L5.87115 27.9459C5.83673 27.7051 5.78167 26.3844 5.78167 25.7618V25.1599L5.54077 25.0636C5.21727 24.9329 4.64943 24.5855 4.33625 24.331C3.84068 23.9286 3.3692 23.392 2.88395 22.6835C2.20598 21.6929 1.6347 20.2965 1.34562 18.9172C1.16666 18.0677 1.12536 17.6205 1.14257 16.63C1.15289 16.1381 1.1701 15.7082 1.18387 15.6772C1.22172 15.5912 1.411 15.5981 1.56931 15.6875C2.03047 15.9455 2.67746 16.4649 3.22466 17.0186C4.54274 18.3497 5.57862 20.1142 5.99504 21.7376L6.0329 21.8924L6.06387 21.7548C6.07764 21.6791 6.12238 21.4384 6.15679 21.2217C6.2738 20.5372 6.32542 20.2552 6.44932 19.7083L6.56977 19.1752L6.49406 19.1133C5.88492 18.6318 5.63713 18.3738 5.27233 17.8407C4.3569 16.513 3.83724 14.4631 3.90263 12.451C3.91295 12.1001 3.94048 11.6668 3.95769 11.4879C4.01964 10.9101 4.19859 10.1121 4.36034 9.68218C4.41885 9.5274 4.43606 9.51021 4.5393 9.49989C4.64254 9.48957 4.6804 9.51365 4.8628 9.68906C5.23448 10.0502 5.84018 10.8516 6.11893 11.3503C6.71087 12.4166 7.1204 13.4897 7.32689 14.5319C7.39572 14.8724 7.49552 15.6291 7.50929 15.9249L7.51961 16.0796L7.60221 15.8561C7.67792 15.6394 7.78805 15.3745 7.91882 15.0753C7.95668 14.9928 7.98421 14.9205 7.98421 14.9102C7.98421 14.8896 8.13564 14.5594 8.35933 14.0882L8.49011 13.813L8.34557 13.6376C7.73299 12.8844 7.29592 11.7046 7.19267 10.5249C7.14793 10.0227 7.14793 8.97708 7.19267 8.45428C7.31657 6.9753 7.82591 5.37593 8.54173 4.2409C8.71725 3.96574 8.72757 3.95542 8.85146 3.95542C9.00289 3.95542 9.04763 4.01389 9.34359 4.59861C10.0319 5.94345 10.407 7.79046 10.3416 9.49301C10.3313 9.806 10.3072 10.1534 10.29 10.2669C10.2728 10.3804 10.2487 10.5421 10.2384 10.6246L10.2177 10.7759L10.3795 10.5386C10.6927 10.0812 11.0953 9.54116 11.467 9.07339C11.8283 8.61938 11.8387 8.59874 11.7905 8.52307C11.6976 8.37861 11.5083 7.86269 11.4326 7.54969C11.2949 6.98906 11.2536 6.1395 11.3224 5.37937C11.4807 3.61835 12.3962 1.54089 13.5181 0.402421C13.7246 0.192612 13.759 0.168535 13.8691 0.178854C13.9827 0.189172 13.993 0.199491 14.0687 0.41274C14.523 1.68535 14.5953 3.69058 14.2442 5.22803C14.1892 5.47224 13.9517 6.24612 13.8795 6.43186C13.8691 6.45937 13.9586 6.39058 14.0791 6.27708C14.1995 6.16358 14.4266 5.96409 14.5815 5.83339C14.8086 5.64077 14.8672 5.57198 14.8844 5.47224C14.9773 4.96319 15.3937 4.14803 15.8962 3.49109C16.1508 3.15402 16.7841 2.52803 17.2074 2.18752C17.5722 1.89516 18.0815 1.52714 18.2054 1.46866C18.2604 1.44115 18.288 1.42395 18.6012 1.23134C18.8593 1.07656 19.5269 0.756689 19.9605 0.584714C20.8278 0.240765 21.8878 0 22.5451 0H22.7825V0.13414C22.7825 0.357707 22.4281 1.16255 22.0805 1.71975C21.64 2.42828 21.2476 2.91325 20.549 3.61147C19.0245 5.13517 17.1592 6.07759 15.6621 6.08791C15.4935 6.08791 15.4625 6.10167 15.318 6.23237C15.0702 6.45593 14.3853 7.11632 14.3853 7.13351C14.3853 7.14039 14.523 7.09568 14.6951 7.03377C15.965 6.55912 17.7924 6.38714 19.1931 6.60727C19.5407 6.6623 20.2049 6.82052 20.4251 6.90307C20.5834 6.96154 20.5972 6.9753 20.6075 7.0888C20.6179 7.20231 20.5972 7.22982 20.3666 7.44995C19.2447 8.51275 17.6685 9.27632 15.934 9.59619C15.435 9.68906 14.2787 9.7269 13.8244 9.66842C13.4527 9.61683 12.9503 9.49301 12.6681 9.37951L12.4547 9.29352L12.2998 9.48613C12.1622 9.66154 11.67 10.3391 11.522 10.5593C11.2054 11.0201 11.023 11.2987 11.0299 11.3091C11.0334 11.3125 11.1813 11.2506 11.3603 11.1646C11.8765 10.9238 12.5407 10.7347 13.3357 10.604C13.876 10.5145 15.4935 10.5145 16.0889 10.604C16.7806 10.7072 17.5515 10.9204 18.078 11.1543C18.2639 11.2403 18.2742 11.2506 18.2742 11.371C18.2742 11.5154 18.2604 11.5292 17.8096 11.8628C16.729 12.6642 15.1115 13.2696 13.6661 13.414C13.2221 13.4587 12.2654 13.4587 11.8559 13.414C11.319 13.359 10.6823 13.1801 10.2762 12.9772C10.1833 12.9291 10.0973 12.905 10.0835 12.9222C10.025 12.9841 9.47781 14.0847 9.25067 14.6007C8.94782 15.2851 8.53485 16.317 8.5555 16.3342C8.56238 16.3445 8.63465 16.2895 8.71725 16.2138C9.78754 15.1991 11.553 14.4424 13.4389 14.1845C13.9311 14.1191 15.5314 14.1294 15.8927 14.2051L16.1061 14.2464V14.3943C16.1061 14.5216 16.0786 14.58 15.9065 14.8139C14.7674 16.3342 12.613 17.6721 10.6376 18.0814C10.0491 18.2018 8.996 18.2328 8.50043 18.1433C8.32148 18.1089 8.1322 18.0746 8.08401 18.0677C7.97389 18.047 7.97733 18.0436 7.79837 18.7625C7.55059 19.7427 7.31313 20.9637 7.2443 21.5828C7.23053 21.6963 7.21332 21.827 7.203 21.8752L7.18579 21.9612L7.24774 21.8752C7.76052 21.1598 8.60712 20.3653 9.3608 19.8837C9.52255 19.7805 9.69462 19.6705 9.7428 19.6361C9.9252 19.5123 10.6961 19.127 11.0643 18.9757C11.6459 18.7384 11.9006 18.6593 12.8677 18.4357C12.9503 18.4151 13.2187 18.3875 13.463 18.3772L13.9035 18.3566V18.4942C13.9035 18.6765 13.8416 18.8416 13.6007 19.3265C13.0397 20.4409 12.1725 21.4934 11.116 22.3361C9.82196 23.3714 8.46602 23.9389 7.29248 23.9389H7.02404L6.99995 24.1349C6.95521 24.5098 7.01028 26.663 7.08599 27.4816C7.12729 27.9081 7.17202 28.2899 7.18579 28.3346C7.20644 28.3999 7.23053 28.3586 7.32001 28.0904C7.42325 27.7842 7.69513 27.1892 7.90506 26.8109C8.23544 26.2193 8.95127 25.3147 9.5432 24.7437C10.5309 23.7876 11.5633 23.0928 12.5958 22.6869C12.6818 22.6525 12.8023 22.6044 12.8642 22.5769C13.0225 22.5081 13.2462 22.5149 13.2738 22.5872C13.3082 22.6766 13.1843 23.5399 13.0776 23.9733C12.9606 24.4307 12.9193 24.5718 12.7713 24.9707C12.4719 25.7721 12.0658 26.5426 11.5358 27.3199C11.0953 27.97 10.3657 28.7679 9.82196 29.2048C9.52255 29.4421 9.06483 29.7413 8.75166 29.8995C8.40407 30.075 7.69857 30.3364 7.56779 30.3364C7.51617 30.3364 7.51961 30.3708 7.59188 30.7078C7.68825 31.1446 7.88785 31.922 8.0083 32.3313C8.05648 32.4929 8.11499 32.6924 8.13908 32.7784C8.20447 33.0088 8.30771 33.3115 8.54517 33.965L8.75854 34.5497L8.81361 34.1301C9.08204 32.173 10.1833 30.099 11.8111 28.4893C12.4306 27.8771 12.7747 27.5985 13.3804 27.2236C13.6041 27.086 13.7211 27.0344 13.8106 27.0344H13.9311L13.9552 27.258C14.0033 27.6845 13.9517 29.1497 13.8726 29.6141C13.7211 30.5358 13.5043 31.3029 13.1636 32.1421C13.0088 32.5204 12.6164 33.3218 12.5063 33.4869C12.4616 33.5523 12.4237 33.6142 12.4237 33.6245C12.4237 33.6348 12.3273 33.7862 12.2138 33.9581C11.5117 35.0072 10.6686 35.8052 9.81508 36.2351C9.67742 36.3039 9.56729 36.3658 9.56729 36.3761C9.56729 36.4105 9.9665 37.1844 10.1523 37.5077C10.259 37.6969 10.3554 37.8689 10.3623 37.886C10.438 38.0787 11.6631 39.9738 11.7423 40.022C11.7698 40.0392 11.7733 40.0151 11.7595 39.9394C11.7492 39.881 11.7285 39.5748 11.7148 39.255C11.67 38.0683 11.8696 36.7854 12.3067 35.4956C12.847 33.9031 13.6833 32.4826 14.7295 31.3888C15.0323 31.0758 15.0599 31.0552 15.1734 31.0655C15.2905 31.0758 15.3008 31.0862 15.3765 31.2994C15.7 32.204 15.8652 33.3494 15.8652 34.6701C15.8652 37.4905 15.0117 39.9532 13.5181 41.4528C13.1602 41.814 13.1533 41.8243 13.2152 41.8931C13.6971 42.4503 14.6744 43.4512 15.2113 43.943C15.3903 44.1047 15.7619 44.428 16.0373 44.655C16.3126 44.8854 16.5432 45.0815 16.5535 45.0918C16.5638 45.1021 16.7634 45.2569 16.9974 45.4323L17.4207 45.7556L17.2865 45.5011C17.0284 45.023 16.76 44.2732 16.5913 43.5647C16.3539 42.5844 16.2782 41.9343 16.2541 40.7408C16.23 39.5095 16.3091 38.739 16.5776 37.4905C16.7428 36.7166 17.1179 35.6435 17.4035 35.1173C17.4964 34.9487 17.5205 34.9281 17.6307 34.9178C17.7442 34.9074 17.7649 34.9212 17.9369 35.1413C20.1326 37.9204 21.0102 42.7873 19.8676 45.845C19.7403 46.1856 19.5338 46.6258 19.3892 46.8528C19.3445 46.925 19.3067 46.9904 19.3067 46.9973C19.3067 47.011 19.7024 47.2552 20.0122 47.4307C20.7865 47.8743 21.7535 48.3662 22.4212 48.662C22.5933 48.7377 22.7997 48.8305 22.8858 48.8684C22.9718 48.9096 23.1817 48.9956 23.3504 49.0644C23.5225 49.1332 23.6842 49.1986 23.7083 49.2123C23.7358 49.2226 23.6326 49.0816 23.4777 48.8993C23.3228 48.717 23.1542 48.5038 23.1026 48.4247C22.7137 47.8434 22.7378 47.8812 22.4384 47.2931C21.7398 45.9104 21.3337 44.2801 21.2304 42.4606C21.1547 41.0917 21.3096 39.5955 21.6228 38.6221C21.7054 38.371 21.7088 38.3676 21.8327 38.3573C21.9566 38.3469 21.9807 38.3641 22.4694 38.856C23.6498 40.0461 24.548 41.5285 25.2191 43.4064C25.6149 44.5174 25.8454 45.8244 25.8454 46.9835C25.8454 47.9397 25.7181 48.7205 25.4462 49.4462C25.3808 49.6285 25.3292 49.7798 25.3361 49.7867C25.3808 49.8314 26.6404 50.1857 27.5146 50.4024C28.6675 50.6879 30.5809 50.9974 31.603 51.0628C31.8818 51.08 31.9816 51.1006 31.9954 51.135C32.0057 51.1625 31.9988 51.4136 31.9747 51.6887C31.9541 51.9673 31.9265 52.3319 31.9162 52.5005L31.8921 52.8066L31.4757 52.7859C30.3538 52.7309 28.4472 52.4317 26.9089 52.0637C26.7196 52.0155 26.7161 52.0189 26.6645 52.1049C26.5647 52.2838 26.1827 52.7275 25.9556 52.9373C24.8199 53.9795 23.2609 54.6777 21.3199 55.0113C20.5249 55.1489 19.3858 55.2211 18.7044 55.1798Z" fill="var(--fill-0, #E3F8F6)"/>
</svg>
